%TF.GenerationSoftware,KiCad,Pcbnew,7.0.8*%
%TF.CreationDate,2023-10-25T09:11:50+02:00*%
%TF.ProjectId,AxxSolder,41787853-6f6c-4646-9572-2e6b69636164,rev?*%
%TF.SameCoordinates,Original*%
%TF.FileFunction,Legend,Top*%
%TF.FilePolarity,Positive*%
%FSLAX46Y46*%
G04 Gerber Fmt 4.6, Leading zero omitted, Abs format (unit mm)*
G04 Created by KiCad (PCBNEW 7.0.8) date 2023-10-25 09:11:50*
%MOMM*%
%LPD*%
G01*
G04 APERTURE LIST*
%ADD10C,0.300000*%
%ADD11C,0.150000*%
%ADD12C,0.200000*%
%ADD13C,0.100000*%
%ADD14C,0.120000*%
%ADD15C,0.250000*%
G04 APERTURE END LIST*
D10*
X104021177Y-49535139D02*
X104830701Y-49535139D01*
X103859272Y-50020853D02*
X104425939Y-48320853D01*
X104425939Y-48320853D02*
X104992606Y-50020853D01*
X105397368Y-50020853D02*
X106287844Y-48887520D01*
X105397368Y-48887520D02*
X106287844Y-50020853D01*
X106773558Y-50020853D02*
X107664034Y-48887520D01*
X106773558Y-48887520D02*
X107664034Y-50020853D01*
X108230700Y-49939901D02*
X108473557Y-50020853D01*
X108473557Y-50020853D02*
X108878319Y-50020853D01*
X108878319Y-50020853D02*
X109040224Y-49939901D01*
X109040224Y-49939901D02*
X109121176Y-49858948D01*
X109121176Y-49858948D02*
X109202129Y-49697043D01*
X109202129Y-49697043D02*
X109202129Y-49535139D01*
X109202129Y-49535139D02*
X109121176Y-49373234D01*
X109121176Y-49373234D02*
X109040224Y-49292281D01*
X109040224Y-49292281D02*
X108878319Y-49211329D01*
X108878319Y-49211329D02*
X108554510Y-49130377D01*
X108554510Y-49130377D02*
X108392605Y-49049424D01*
X108392605Y-49049424D02*
X108311652Y-48968472D01*
X108311652Y-48968472D02*
X108230700Y-48806567D01*
X108230700Y-48806567D02*
X108230700Y-48644662D01*
X108230700Y-48644662D02*
X108311652Y-48482758D01*
X108311652Y-48482758D02*
X108392605Y-48401805D01*
X108392605Y-48401805D02*
X108554510Y-48320853D01*
X108554510Y-48320853D02*
X108959271Y-48320853D01*
X108959271Y-48320853D02*
X109202129Y-48401805D01*
X110173558Y-50020853D02*
X110011653Y-49939901D01*
X110011653Y-49939901D02*
X109930700Y-49858948D01*
X109930700Y-49858948D02*
X109849748Y-49697043D01*
X109849748Y-49697043D02*
X109849748Y-49211329D01*
X109849748Y-49211329D02*
X109930700Y-49049424D01*
X109930700Y-49049424D02*
X110011653Y-48968472D01*
X110011653Y-48968472D02*
X110173558Y-48887520D01*
X110173558Y-48887520D02*
X110416415Y-48887520D01*
X110416415Y-48887520D02*
X110578319Y-48968472D01*
X110578319Y-48968472D02*
X110659272Y-49049424D01*
X110659272Y-49049424D02*
X110740224Y-49211329D01*
X110740224Y-49211329D02*
X110740224Y-49697043D01*
X110740224Y-49697043D02*
X110659272Y-49858948D01*
X110659272Y-49858948D02*
X110578319Y-49939901D01*
X110578319Y-49939901D02*
X110416415Y-50020853D01*
X110416415Y-50020853D02*
X110173558Y-50020853D01*
X111711653Y-50020853D02*
X111549748Y-49939901D01*
X111549748Y-49939901D02*
X111468795Y-49777996D01*
X111468795Y-49777996D02*
X111468795Y-48320853D01*
X113087843Y-50020853D02*
X113087843Y-48320853D01*
X113087843Y-49939901D02*
X112925938Y-50020853D01*
X112925938Y-50020853D02*
X112602129Y-50020853D01*
X112602129Y-50020853D02*
X112440224Y-49939901D01*
X112440224Y-49939901D02*
X112359271Y-49858948D01*
X112359271Y-49858948D02*
X112278319Y-49697043D01*
X112278319Y-49697043D02*
X112278319Y-49211329D01*
X112278319Y-49211329D02*
X112359271Y-49049424D01*
X112359271Y-49049424D02*
X112440224Y-48968472D01*
X112440224Y-48968472D02*
X112602129Y-48887520D01*
X112602129Y-48887520D02*
X112925938Y-48887520D01*
X112925938Y-48887520D02*
X113087843Y-48968472D01*
X114544985Y-49939901D02*
X114383081Y-50020853D01*
X114383081Y-50020853D02*
X114059271Y-50020853D01*
X114059271Y-50020853D02*
X113897366Y-49939901D01*
X113897366Y-49939901D02*
X113816414Y-49777996D01*
X113816414Y-49777996D02*
X113816414Y-49130377D01*
X113816414Y-49130377D02*
X113897366Y-48968472D01*
X113897366Y-48968472D02*
X114059271Y-48887520D01*
X114059271Y-48887520D02*
X114383081Y-48887520D01*
X114383081Y-48887520D02*
X114544985Y-48968472D01*
X114544985Y-48968472D02*
X114625938Y-49130377D01*
X114625938Y-49130377D02*
X114625938Y-49292281D01*
X114625938Y-49292281D02*
X113816414Y-49454186D01*
X115354509Y-50020853D02*
X115354509Y-48887520D01*
X115354509Y-49211329D02*
X115435462Y-49049424D01*
X115435462Y-49049424D02*
X115516414Y-48968472D01*
X115516414Y-48968472D02*
X115678319Y-48887520D01*
X115678319Y-48887520D02*
X115840224Y-48887520D01*
X117459271Y-48320853D02*
X118025938Y-50020853D01*
X118025938Y-50020853D02*
X118592605Y-48320853D01*
X118997367Y-48320853D02*
X120049748Y-48320853D01*
X120049748Y-48320853D02*
X119483081Y-48968472D01*
X119483081Y-48968472D02*
X119725938Y-48968472D01*
X119725938Y-48968472D02*
X119887843Y-49049424D01*
X119887843Y-49049424D02*
X119968795Y-49130377D01*
X119968795Y-49130377D02*
X120049748Y-49292281D01*
X120049748Y-49292281D02*
X120049748Y-49697043D01*
X120049748Y-49697043D02*
X119968795Y-49858948D01*
X119968795Y-49858948D02*
X119887843Y-49939901D01*
X119887843Y-49939901D02*
X119725938Y-50020853D01*
X119725938Y-50020853D02*
X119240224Y-50020853D01*
X119240224Y-50020853D02*
X119078319Y-49939901D01*
X119078319Y-49939901D02*
X118997367Y-49858948D01*
X120778319Y-49858948D02*
X120859272Y-49939901D01*
X120859272Y-49939901D02*
X120778319Y-50020853D01*
X120778319Y-50020853D02*
X120697367Y-49939901D01*
X120697367Y-49939901D02*
X120778319Y-49858948D01*
X120778319Y-49858948D02*
X120778319Y-50020853D01*
X121911653Y-48320853D02*
X122073558Y-48320853D01*
X122073558Y-48320853D02*
X122235462Y-48401805D01*
X122235462Y-48401805D02*
X122316415Y-48482758D01*
X122316415Y-48482758D02*
X122397367Y-48644662D01*
X122397367Y-48644662D02*
X122478320Y-48968472D01*
X122478320Y-48968472D02*
X122478320Y-49373234D01*
X122478320Y-49373234D02*
X122397367Y-49697043D01*
X122397367Y-49697043D02*
X122316415Y-49858948D01*
X122316415Y-49858948D02*
X122235462Y-49939901D01*
X122235462Y-49939901D02*
X122073558Y-50020853D01*
X122073558Y-50020853D02*
X121911653Y-50020853D01*
X121911653Y-50020853D02*
X121749748Y-49939901D01*
X121749748Y-49939901D02*
X121668796Y-49858948D01*
X121668796Y-49858948D02*
X121587843Y-49697043D01*
X121587843Y-49697043D02*
X121506891Y-49373234D01*
X121506891Y-49373234D02*
X121506891Y-48968472D01*
X121506891Y-48968472D02*
X121587843Y-48644662D01*
X121587843Y-48644662D02*
X121668796Y-48482758D01*
X121668796Y-48482758D02*
X121749748Y-48401805D01*
X121749748Y-48401805D02*
X121911653Y-48320853D01*
D11*
X130390476Y-80350390D02*
X130314286Y-80312295D01*
X130314286Y-80312295D02*
X130200000Y-80312295D01*
X130200000Y-80312295D02*
X130085714Y-80350390D01*
X130085714Y-80350390D02*
X130009524Y-80426580D01*
X130009524Y-80426580D02*
X129971429Y-80502771D01*
X129971429Y-80502771D02*
X129933333Y-80655152D01*
X129933333Y-80655152D02*
X129933333Y-80769438D01*
X129933333Y-80769438D02*
X129971429Y-80921819D01*
X129971429Y-80921819D02*
X130009524Y-80998009D01*
X130009524Y-80998009D02*
X130085714Y-81074200D01*
X130085714Y-81074200D02*
X130200000Y-81112295D01*
X130200000Y-81112295D02*
X130276191Y-81112295D01*
X130276191Y-81112295D02*
X130390476Y-81074200D01*
X130390476Y-81074200D02*
X130428572Y-81036104D01*
X130428572Y-81036104D02*
X130428572Y-80769438D01*
X130428572Y-80769438D02*
X130276191Y-80769438D01*
X130771429Y-81112295D02*
X130771429Y-80312295D01*
X130771429Y-80312295D02*
X131228572Y-81112295D01*
X131228572Y-81112295D02*
X131228572Y-80312295D01*
X131609524Y-81112295D02*
X131609524Y-80312295D01*
X131609524Y-80312295D02*
X131800000Y-80312295D01*
X131800000Y-80312295D02*
X131914286Y-80350390D01*
X131914286Y-80350390D02*
X131990476Y-80426580D01*
X131990476Y-80426580D02*
X132028571Y-80502771D01*
X132028571Y-80502771D02*
X132066667Y-80655152D01*
X132066667Y-80655152D02*
X132066667Y-80769438D01*
X132066667Y-80769438D02*
X132028571Y-80921819D01*
X132028571Y-80921819D02*
X131990476Y-80998009D01*
X131990476Y-80998009D02*
X131914286Y-81074200D01*
X131914286Y-81074200D02*
X131800000Y-81112295D01*
X131800000Y-81112295D02*
X131609524Y-81112295D01*
X103252380Y-77193247D02*
X103366666Y-77231342D01*
X103366666Y-77231342D02*
X103404761Y-77269438D01*
X103404761Y-77269438D02*
X103442857Y-77345628D01*
X103442857Y-77345628D02*
X103442857Y-77459914D01*
X103442857Y-77459914D02*
X103404761Y-77536104D01*
X103404761Y-77536104D02*
X103366666Y-77574200D01*
X103366666Y-77574200D02*
X103290476Y-77612295D01*
X103290476Y-77612295D02*
X102985714Y-77612295D01*
X102985714Y-77612295D02*
X102985714Y-76812295D01*
X102985714Y-76812295D02*
X103252380Y-76812295D01*
X103252380Y-76812295D02*
X103328571Y-76850390D01*
X103328571Y-76850390D02*
X103366666Y-76888485D01*
X103366666Y-76888485D02*
X103404761Y-76964676D01*
X103404761Y-76964676D02*
X103404761Y-77040866D01*
X103404761Y-77040866D02*
X103366666Y-77117057D01*
X103366666Y-77117057D02*
X103328571Y-77155152D01*
X103328571Y-77155152D02*
X103252380Y-77193247D01*
X103252380Y-77193247D02*
X102985714Y-77193247D01*
X104166666Y-77612295D02*
X103785714Y-77612295D01*
X103785714Y-77612295D02*
X103785714Y-76812295D01*
X104433333Y-76812295D02*
X104433333Y-77459914D01*
X104433333Y-77459914D02*
X104471428Y-77536104D01*
X104471428Y-77536104D02*
X104509523Y-77574200D01*
X104509523Y-77574200D02*
X104585714Y-77612295D01*
X104585714Y-77612295D02*
X104738095Y-77612295D01*
X104738095Y-77612295D02*
X104814285Y-77574200D01*
X104814285Y-77574200D02*
X104852380Y-77536104D01*
X104852380Y-77536104D02*
X104890476Y-77459914D01*
X104890476Y-77459914D02*
X104890476Y-76812295D01*
X105271428Y-77193247D02*
X105538094Y-77193247D01*
X105652380Y-77612295D02*
X105271428Y-77612295D01*
X105271428Y-77612295D02*
X105271428Y-76812295D01*
X105271428Y-76812295D02*
X105652380Y-76812295D01*
X129819047Y-77562295D02*
X130314285Y-77562295D01*
X130314285Y-77562295D02*
X130047619Y-77867057D01*
X130047619Y-77867057D02*
X130161904Y-77867057D01*
X130161904Y-77867057D02*
X130238095Y-77905152D01*
X130238095Y-77905152D02*
X130276190Y-77943247D01*
X130276190Y-77943247D02*
X130314285Y-78019438D01*
X130314285Y-78019438D02*
X130314285Y-78209914D01*
X130314285Y-78209914D02*
X130276190Y-78286104D01*
X130276190Y-78286104D02*
X130238095Y-78324200D01*
X130238095Y-78324200D02*
X130161904Y-78362295D01*
X130161904Y-78362295D02*
X129933333Y-78362295D01*
X129933333Y-78362295D02*
X129857142Y-78324200D01*
X129857142Y-78324200D02*
X129819047Y-78286104D01*
X130657143Y-78286104D02*
X130695238Y-78324200D01*
X130695238Y-78324200D02*
X130657143Y-78362295D01*
X130657143Y-78362295D02*
X130619047Y-78324200D01*
X130619047Y-78324200D02*
X130657143Y-78286104D01*
X130657143Y-78286104D02*
X130657143Y-78362295D01*
X130961904Y-77562295D02*
X131457142Y-77562295D01*
X131457142Y-77562295D02*
X131190476Y-77867057D01*
X131190476Y-77867057D02*
X131304761Y-77867057D01*
X131304761Y-77867057D02*
X131380952Y-77905152D01*
X131380952Y-77905152D02*
X131419047Y-77943247D01*
X131419047Y-77943247D02*
X131457142Y-78019438D01*
X131457142Y-78019438D02*
X131457142Y-78209914D01*
X131457142Y-78209914D02*
X131419047Y-78286104D01*
X131419047Y-78286104D02*
X131380952Y-78324200D01*
X131380952Y-78324200D02*
X131304761Y-78362295D01*
X131304761Y-78362295D02*
X131076190Y-78362295D01*
X131076190Y-78362295D02*
X130999999Y-78324200D01*
X130999999Y-78324200D02*
X130961904Y-78286104D01*
X131685714Y-77562295D02*
X131952381Y-78362295D01*
X131952381Y-78362295D02*
X132219047Y-77562295D01*
X102929761Y-67699200D02*
X103044047Y-67737295D01*
X103044047Y-67737295D02*
X103234523Y-67737295D01*
X103234523Y-67737295D02*
X103310714Y-67699200D01*
X103310714Y-67699200D02*
X103348809Y-67661104D01*
X103348809Y-67661104D02*
X103386904Y-67584914D01*
X103386904Y-67584914D02*
X103386904Y-67508723D01*
X103386904Y-67508723D02*
X103348809Y-67432533D01*
X103348809Y-67432533D02*
X103310714Y-67394438D01*
X103310714Y-67394438D02*
X103234523Y-67356342D01*
X103234523Y-67356342D02*
X103082142Y-67318247D01*
X103082142Y-67318247D02*
X103005952Y-67280152D01*
X103005952Y-67280152D02*
X102967857Y-67242057D01*
X102967857Y-67242057D02*
X102929761Y-67165866D01*
X102929761Y-67165866D02*
X102929761Y-67089676D01*
X102929761Y-67089676D02*
X102967857Y-67013485D01*
X102967857Y-67013485D02*
X103005952Y-66975390D01*
X103005952Y-66975390D02*
X103082142Y-66937295D01*
X103082142Y-66937295D02*
X103272619Y-66937295D01*
X103272619Y-66937295D02*
X103386904Y-66975390D01*
X103615476Y-66937295D02*
X104072619Y-66937295D01*
X103844047Y-67737295D02*
X103844047Y-66937295D01*
X104301190Y-67508723D02*
X104682143Y-67508723D01*
X104225000Y-67737295D02*
X104491667Y-66937295D01*
X104491667Y-66937295D02*
X104758333Y-67737295D01*
X105025000Y-67737295D02*
X105025000Y-66937295D01*
X105025000Y-66937295D02*
X105482143Y-67737295D01*
X105482143Y-67737295D02*
X105482143Y-66937295D01*
X105863095Y-67737295D02*
X105863095Y-66937295D01*
X105863095Y-66937295D02*
X106053571Y-66937295D01*
X106053571Y-66937295D02*
X106167857Y-66975390D01*
X106167857Y-66975390D02*
X106244047Y-67051580D01*
X106244047Y-67051580D02*
X106282142Y-67127771D01*
X106282142Y-67127771D02*
X106320238Y-67280152D01*
X106320238Y-67280152D02*
X106320238Y-67394438D01*
X106320238Y-67394438D02*
X106282142Y-67546819D01*
X106282142Y-67546819D02*
X106244047Y-67623009D01*
X106244047Y-67623009D02*
X106167857Y-67699200D01*
X106167857Y-67699200D02*
X106053571Y-67737295D01*
X106053571Y-67737295D02*
X105863095Y-67737295D01*
X116819047Y-66312295D02*
X117314285Y-66312295D01*
X117314285Y-66312295D02*
X117047619Y-66617057D01*
X117047619Y-66617057D02*
X117161904Y-66617057D01*
X117161904Y-66617057D02*
X117238095Y-66655152D01*
X117238095Y-66655152D02*
X117276190Y-66693247D01*
X117276190Y-66693247D02*
X117314285Y-66769438D01*
X117314285Y-66769438D02*
X117314285Y-66959914D01*
X117314285Y-66959914D02*
X117276190Y-67036104D01*
X117276190Y-67036104D02*
X117238095Y-67074200D01*
X117238095Y-67074200D02*
X117161904Y-67112295D01*
X117161904Y-67112295D02*
X116933333Y-67112295D01*
X116933333Y-67112295D02*
X116857142Y-67074200D01*
X116857142Y-67074200D02*
X116819047Y-67036104D01*
X117657143Y-67036104D02*
X117695238Y-67074200D01*
X117695238Y-67074200D02*
X117657143Y-67112295D01*
X117657143Y-67112295D02*
X117619047Y-67074200D01*
X117619047Y-67074200D02*
X117657143Y-67036104D01*
X117657143Y-67036104D02*
X117657143Y-67112295D01*
X117961904Y-66312295D02*
X118457142Y-66312295D01*
X118457142Y-66312295D02*
X118190476Y-66617057D01*
X118190476Y-66617057D02*
X118304761Y-66617057D01*
X118304761Y-66617057D02*
X118380952Y-66655152D01*
X118380952Y-66655152D02*
X118419047Y-66693247D01*
X118419047Y-66693247D02*
X118457142Y-66769438D01*
X118457142Y-66769438D02*
X118457142Y-66959914D01*
X118457142Y-66959914D02*
X118419047Y-67036104D01*
X118419047Y-67036104D02*
X118380952Y-67074200D01*
X118380952Y-67074200D02*
X118304761Y-67112295D01*
X118304761Y-67112295D02*
X118076190Y-67112295D01*
X118076190Y-67112295D02*
X117999999Y-67074200D01*
X117999999Y-67074200D02*
X117961904Y-67036104D01*
X118685714Y-66312295D02*
X118952381Y-67112295D01*
X118952381Y-67112295D02*
X119219047Y-66312295D01*
X128440475Y-73324200D02*
X128554761Y-73362295D01*
X128554761Y-73362295D02*
X128745237Y-73362295D01*
X128745237Y-73362295D02*
X128821428Y-73324200D01*
X128821428Y-73324200D02*
X128859523Y-73286104D01*
X128859523Y-73286104D02*
X128897618Y-73209914D01*
X128897618Y-73209914D02*
X128897618Y-73133723D01*
X128897618Y-73133723D02*
X128859523Y-73057533D01*
X128859523Y-73057533D02*
X128821428Y-73019438D01*
X128821428Y-73019438D02*
X128745237Y-72981342D01*
X128745237Y-72981342D02*
X128592856Y-72943247D01*
X128592856Y-72943247D02*
X128516666Y-72905152D01*
X128516666Y-72905152D02*
X128478571Y-72867057D01*
X128478571Y-72867057D02*
X128440475Y-72790866D01*
X128440475Y-72790866D02*
X128440475Y-72714676D01*
X128440475Y-72714676D02*
X128478571Y-72638485D01*
X128478571Y-72638485D02*
X128516666Y-72600390D01*
X128516666Y-72600390D02*
X128592856Y-72562295D01*
X128592856Y-72562295D02*
X128783333Y-72562295D01*
X128783333Y-72562295D02*
X128897618Y-72600390D01*
X129164285Y-72562295D02*
X129354761Y-73362295D01*
X129354761Y-73362295D02*
X129507142Y-72790866D01*
X129507142Y-72790866D02*
X129659523Y-73362295D01*
X129659523Y-73362295D02*
X129850000Y-72562295D01*
X130611905Y-73286104D02*
X130573809Y-73324200D01*
X130573809Y-73324200D02*
X130459524Y-73362295D01*
X130459524Y-73362295D02*
X130383333Y-73362295D01*
X130383333Y-73362295D02*
X130269047Y-73324200D01*
X130269047Y-73324200D02*
X130192857Y-73248009D01*
X130192857Y-73248009D02*
X130154762Y-73171819D01*
X130154762Y-73171819D02*
X130116666Y-73019438D01*
X130116666Y-73019438D02*
X130116666Y-72905152D01*
X130116666Y-72905152D02*
X130154762Y-72752771D01*
X130154762Y-72752771D02*
X130192857Y-72676580D01*
X130192857Y-72676580D02*
X130269047Y-72600390D01*
X130269047Y-72600390D02*
X130383333Y-72562295D01*
X130383333Y-72562295D02*
X130459524Y-72562295D01*
X130459524Y-72562295D02*
X130573809Y-72600390D01*
X130573809Y-72600390D02*
X130611905Y-72638485D01*
X131335714Y-73362295D02*
X130954762Y-73362295D01*
X130954762Y-73362295D02*
X130954762Y-72562295D01*
X131602381Y-73362295D02*
X131602381Y-72562295D01*
X132059524Y-73362295D02*
X131716666Y-72905152D01*
X132059524Y-72562295D02*
X131602381Y-73019438D01*
X103366666Y-74625390D02*
X103290476Y-74587295D01*
X103290476Y-74587295D02*
X103176190Y-74587295D01*
X103176190Y-74587295D02*
X103061904Y-74625390D01*
X103061904Y-74625390D02*
X102985714Y-74701580D01*
X102985714Y-74701580D02*
X102947619Y-74777771D01*
X102947619Y-74777771D02*
X102909523Y-74930152D01*
X102909523Y-74930152D02*
X102909523Y-75044438D01*
X102909523Y-75044438D02*
X102947619Y-75196819D01*
X102947619Y-75196819D02*
X102985714Y-75273009D01*
X102985714Y-75273009D02*
X103061904Y-75349200D01*
X103061904Y-75349200D02*
X103176190Y-75387295D01*
X103176190Y-75387295D02*
X103252381Y-75387295D01*
X103252381Y-75387295D02*
X103366666Y-75349200D01*
X103366666Y-75349200D02*
X103404762Y-75311104D01*
X103404762Y-75311104D02*
X103404762Y-75044438D01*
X103404762Y-75044438D02*
X103252381Y-75044438D01*
X104204762Y-75387295D02*
X103938095Y-75006342D01*
X103747619Y-75387295D02*
X103747619Y-74587295D01*
X103747619Y-74587295D02*
X104052381Y-74587295D01*
X104052381Y-74587295D02*
X104128571Y-74625390D01*
X104128571Y-74625390D02*
X104166666Y-74663485D01*
X104166666Y-74663485D02*
X104204762Y-74739676D01*
X104204762Y-74739676D02*
X104204762Y-74853961D01*
X104204762Y-74853961D02*
X104166666Y-74930152D01*
X104166666Y-74930152D02*
X104128571Y-74968247D01*
X104128571Y-74968247D02*
X104052381Y-75006342D01*
X104052381Y-75006342D02*
X103747619Y-75006342D01*
X104547619Y-74968247D02*
X104814285Y-74968247D01*
X104928571Y-75387295D02*
X104547619Y-75387295D01*
X104547619Y-75387295D02*
X104547619Y-74587295D01*
X104547619Y-74587295D02*
X104928571Y-74587295D01*
X105271429Y-74968247D02*
X105538095Y-74968247D01*
X105652381Y-75387295D02*
X105271429Y-75387295D01*
X105271429Y-75387295D02*
X105271429Y-74587295D01*
X105271429Y-74587295D02*
X105652381Y-74587295D01*
X105995239Y-75387295D02*
X105995239Y-74587295D01*
X105995239Y-74587295D02*
X106452382Y-75387295D01*
X106452382Y-75387295D02*
X106452382Y-74587295D01*
X103335714Y-84612295D02*
X103069047Y-84231342D01*
X102878571Y-84612295D02*
X102878571Y-83812295D01*
X102878571Y-83812295D02*
X103183333Y-83812295D01*
X103183333Y-83812295D02*
X103259523Y-83850390D01*
X103259523Y-83850390D02*
X103297618Y-83888485D01*
X103297618Y-83888485D02*
X103335714Y-83964676D01*
X103335714Y-83964676D02*
X103335714Y-84078961D01*
X103335714Y-84078961D02*
X103297618Y-84155152D01*
X103297618Y-84155152D02*
X103259523Y-84193247D01*
X103259523Y-84193247D02*
X103183333Y-84231342D01*
X103183333Y-84231342D02*
X102878571Y-84231342D01*
X103678571Y-84193247D02*
X103945237Y-84193247D01*
X104059523Y-84612295D02*
X103678571Y-84612295D01*
X103678571Y-84612295D02*
X103678571Y-83812295D01*
X103678571Y-83812295D02*
X104059523Y-83812295D01*
X104402381Y-84612295D02*
X104402381Y-83812295D01*
X104402381Y-83812295D02*
X104592857Y-83812295D01*
X104592857Y-83812295D02*
X104707143Y-83850390D01*
X104707143Y-83850390D02*
X104783333Y-83926580D01*
X104783333Y-83926580D02*
X104821428Y-84002771D01*
X104821428Y-84002771D02*
X104859524Y-84155152D01*
X104859524Y-84155152D02*
X104859524Y-84269438D01*
X104859524Y-84269438D02*
X104821428Y-84421819D01*
X104821428Y-84421819D02*
X104783333Y-84498009D01*
X104783333Y-84498009D02*
X104707143Y-84574200D01*
X104707143Y-84574200D02*
X104592857Y-84612295D01*
X104592857Y-84612295D02*
X104402381Y-84612295D01*
X98190476Y-86000390D02*
X98114286Y-85962295D01*
X98114286Y-85962295D02*
X98000000Y-85962295D01*
X98000000Y-85962295D02*
X97885714Y-86000390D01*
X97885714Y-86000390D02*
X97809524Y-86076580D01*
X97809524Y-86076580D02*
X97771429Y-86152771D01*
X97771429Y-86152771D02*
X97733333Y-86305152D01*
X97733333Y-86305152D02*
X97733333Y-86419438D01*
X97733333Y-86419438D02*
X97771429Y-86571819D01*
X97771429Y-86571819D02*
X97809524Y-86648009D01*
X97809524Y-86648009D02*
X97885714Y-86724200D01*
X97885714Y-86724200D02*
X98000000Y-86762295D01*
X98000000Y-86762295D02*
X98076191Y-86762295D01*
X98076191Y-86762295D02*
X98190476Y-86724200D01*
X98190476Y-86724200D02*
X98228572Y-86686104D01*
X98228572Y-86686104D02*
X98228572Y-86419438D01*
X98228572Y-86419438D02*
X98076191Y-86419438D01*
X98571429Y-86762295D02*
X98571429Y-85962295D01*
X98571429Y-85962295D02*
X99028572Y-86762295D01*
X99028572Y-86762295D02*
X99028572Y-85962295D01*
X99409524Y-86762295D02*
X99409524Y-85962295D01*
X99409524Y-85962295D02*
X99600000Y-85962295D01*
X99600000Y-85962295D02*
X99714286Y-86000390D01*
X99714286Y-86000390D02*
X99790476Y-86076580D01*
X99790476Y-86076580D02*
X99828571Y-86152771D01*
X99828571Y-86152771D02*
X99866667Y-86305152D01*
X99866667Y-86305152D02*
X99866667Y-86419438D01*
X99866667Y-86419438D02*
X99828571Y-86571819D01*
X99828571Y-86571819D02*
X99790476Y-86648009D01*
X99790476Y-86648009D02*
X99714286Y-86724200D01*
X99714286Y-86724200D02*
X99600000Y-86762295D01*
X99600000Y-86762295D02*
X99409524Y-86762295D01*
X97733333Y-89862295D02*
X98000000Y-90662295D01*
X98000000Y-90662295D02*
X98266666Y-89862295D01*
X98533333Y-90662295D02*
X98533333Y-89862295D01*
X98533333Y-89862295D02*
X98723809Y-89862295D01*
X98723809Y-89862295D02*
X98838095Y-89900390D01*
X98838095Y-89900390D02*
X98914285Y-89976580D01*
X98914285Y-89976580D02*
X98952380Y-90052771D01*
X98952380Y-90052771D02*
X98990476Y-90205152D01*
X98990476Y-90205152D02*
X98990476Y-90319438D01*
X98990476Y-90319438D02*
X98952380Y-90471819D01*
X98952380Y-90471819D02*
X98914285Y-90548009D01*
X98914285Y-90548009D02*
X98838095Y-90624200D01*
X98838095Y-90624200D02*
X98723809Y-90662295D01*
X98723809Y-90662295D02*
X98533333Y-90662295D01*
X99333333Y-90662295D02*
X99333333Y-89862295D01*
X99333333Y-89862295D02*
X99523809Y-89862295D01*
X99523809Y-89862295D02*
X99638095Y-89900390D01*
X99638095Y-89900390D02*
X99714285Y-89976580D01*
X99714285Y-89976580D02*
X99752380Y-90052771D01*
X99752380Y-90052771D02*
X99790476Y-90205152D01*
X99790476Y-90205152D02*
X99790476Y-90319438D01*
X99790476Y-90319438D02*
X99752380Y-90471819D01*
X99752380Y-90471819D02*
X99714285Y-90548009D01*
X99714285Y-90548009D02*
X99638095Y-90624200D01*
X99638095Y-90624200D02*
X99523809Y-90662295D01*
X99523809Y-90662295D02*
X99333333Y-90662295D01*
X128804761Y-70824200D02*
X128919047Y-70862295D01*
X128919047Y-70862295D02*
X129109523Y-70862295D01*
X129109523Y-70862295D02*
X129185714Y-70824200D01*
X129185714Y-70824200D02*
X129223809Y-70786104D01*
X129223809Y-70786104D02*
X129261904Y-70709914D01*
X129261904Y-70709914D02*
X129261904Y-70633723D01*
X129261904Y-70633723D02*
X129223809Y-70557533D01*
X129223809Y-70557533D02*
X129185714Y-70519438D01*
X129185714Y-70519438D02*
X129109523Y-70481342D01*
X129109523Y-70481342D02*
X128957142Y-70443247D01*
X128957142Y-70443247D02*
X128880952Y-70405152D01*
X128880952Y-70405152D02*
X128842857Y-70367057D01*
X128842857Y-70367057D02*
X128804761Y-70290866D01*
X128804761Y-70290866D02*
X128804761Y-70214676D01*
X128804761Y-70214676D02*
X128842857Y-70138485D01*
X128842857Y-70138485D02*
X128880952Y-70100390D01*
X128880952Y-70100390D02*
X128957142Y-70062295D01*
X128957142Y-70062295D02*
X129147619Y-70062295D01*
X129147619Y-70062295D02*
X129261904Y-70100390D01*
X129528571Y-70062295D02*
X129719047Y-70862295D01*
X129719047Y-70862295D02*
X129871428Y-70290866D01*
X129871428Y-70290866D02*
X130023809Y-70862295D01*
X130023809Y-70862295D02*
X130214286Y-70062295D01*
X130519048Y-70862295D02*
X130519048Y-70062295D01*
X130519048Y-70062295D02*
X130709524Y-70062295D01*
X130709524Y-70062295D02*
X130823810Y-70100390D01*
X130823810Y-70100390D02*
X130900000Y-70176580D01*
X130900000Y-70176580D02*
X130938095Y-70252771D01*
X130938095Y-70252771D02*
X130976191Y-70405152D01*
X130976191Y-70405152D02*
X130976191Y-70519438D01*
X130976191Y-70519438D02*
X130938095Y-70671819D01*
X130938095Y-70671819D02*
X130900000Y-70748009D01*
X130900000Y-70748009D02*
X130823810Y-70824200D01*
X130823810Y-70824200D02*
X130709524Y-70862295D01*
X130709524Y-70862295D02*
X130519048Y-70862295D01*
X131319048Y-70862295D02*
X131319048Y-70062295D01*
X131852381Y-70062295D02*
X132004762Y-70062295D01*
X132004762Y-70062295D02*
X132080952Y-70100390D01*
X132080952Y-70100390D02*
X132157143Y-70176580D01*
X132157143Y-70176580D02*
X132195238Y-70328961D01*
X132195238Y-70328961D02*
X132195238Y-70595628D01*
X132195238Y-70595628D02*
X132157143Y-70748009D01*
X132157143Y-70748009D02*
X132080952Y-70824200D01*
X132080952Y-70824200D02*
X132004762Y-70862295D01*
X132004762Y-70862295D02*
X131852381Y-70862295D01*
X131852381Y-70862295D02*
X131776190Y-70824200D01*
X131776190Y-70824200D02*
X131700000Y-70748009D01*
X131700000Y-70748009D02*
X131661904Y-70595628D01*
X131661904Y-70595628D02*
X131661904Y-70328961D01*
X131661904Y-70328961D02*
X131700000Y-70176580D01*
X131700000Y-70176580D02*
X131776190Y-70100390D01*
X131776190Y-70100390D02*
X131852381Y-70062295D01*
X130811905Y-75862295D02*
X130545238Y-75481342D01*
X130354762Y-75862295D02*
X130354762Y-75062295D01*
X130354762Y-75062295D02*
X130659524Y-75062295D01*
X130659524Y-75062295D02*
X130735714Y-75100390D01*
X130735714Y-75100390D02*
X130773809Y-75138485D01*
X130773809Y-75138485D02*
X130811905Y-75214676D01*
X130811905Y-75214676D02*
X130811905Y-75328961D01*
X130811905Y-75328961D02*
X130773809Y-75405152D01*
X130773809Y-75405152D02*
X130735714Y-75443247D01*
X130735714Y-75443247D02*
X130659524Y-75481342D01*
X130659524Y-75481342D02*
X130354762Y-75481342D01*
X131116666Y-75824200D02*
X131230952Y-75862295D01*
X131230952Y-75862295D02*
X131421428Y-75862295D01*
X131421428Y-75862295D02*
X131497619Y-75824200D01*
X131497619Y-75824200D02*
X131535714Y-75786104D01*
X131535714Y-75786104D02*
X131573809Y-75709914D01*
X131573809Y-75709914D02*
X131573809Y-75633723D01*
X131573809Y-75633723D02*
X131535714Y-75557533D01*
X131535714Y-75557533D02*
X131497619Y-75519438D01*
X131497619Y-75519438D02*
X131421428Y-75481342D01*
X131421428Y-75481342D02*
X131269047Y-75443247D01*
X131269047Y-75443247D02*
X131192857Y-75405152D01*
X131192857Y-75405152D02*
X131154762Y-75367057D01*
X131154762Y-75367057D02*
X131116666Y-75290866D01*
X131116666Y-75290866D02*
X131116666Y-75214676D01*
X131116666Y-75214676D02*
X131154762Y-75138485D01*
X131154762Y-75138485D02*
X131192857Y-75100390D01*
X131192857Y-75100390D02*
X131269047Y-75062295D01*
X131269047Y-75062295D02*
X131459524Y-75062295D01*
X131459524Y-75062295D02*
X131573809Y-75100390D01*
X131802381Y-75062295D02*
X132259524Y-75062295D01*
X132030952Y-75862295D02*
X132030952Y-75062295D01*
D12*
X103988720Y-52433528D02*
X103988720Y-50933528D01*
X104703006Y-51433528D02*
X104703006Y-52433528D01*
X104703006Y-51576385D02*
X104774435Y-51504957D01*
X104774435Y-51504957D02*
X104917292Y-51433528D01*
X104917292Y-51433528D02*
X105131578Y-51433528D01*
X105131578Y-51433528D02*
X105274435Y-51504957D01*
X105274435Y-51504957D02*
X105345864Y-51647814D01*
X105345864Y-51647814D02*
X105345864Y-52433528D01*
X106060149Y-51433528D02*
X106060149Y-52933528D01*
X106060149Y-51504957D02*
X106203007Y-51433528D01*
X106203007Y-51433528D02*
X106488721Y-51433528D01*
X106488721Y-51433528D02*
X106631578Y-51504957D01*
X106631578Y-51504957D02*
X106703007Y-51576385D01*
X106703007Y-51576385D02*
X106774435Y-51719242D01*
X106774435Y-51719242D02*
X106774435Y-52147814D01*
X106774435Y-52147814D02*
X106703007Y-52290671D01*
X106703007Y-52290671D02*
X106631578Y-52362100D01*
X106631578Y-52362100D02*
X106488721Y-52433528D01*
X106488721Y-52433528D02*
X106203007Y-52433528D01*
X106203007Y-52433528D02*
X106060149Y-52362100D01*
X108060150Y-51433528D02*
X108060150Y-52433528D01*
X107417292Y-51433528D02*
X107417292Y-52219242D01*
X107417292Y-52219242D02*
X107488721Y-52362100D01*
X107488721Y-52362100D02*
X107631578Y-52433528D01*
X107631578Y-52433528D02*
X107845864Y-52433528D01*
X107845864Y-52433528D02*
X107988721Y-52362100D01*
X107988721Y-52362100D02*
X108060150Y-52290671D01*
X108560150Y-51433528D02*
X109131578Y-51433528D01*
X108774435Y-50933528D02*
X108774435Y-52219242D01*
X108774435Y-52219242D02*
X108845864Y-52362100D01*
X108845864Y-52362100D02*
X108988721Y-52433528D01*
X108988721Y-52433528D02*
X109131578Y-52433528D01*
X109631578Y-52290671D02*
X109703007Y-52362100D01*
X109703007Y-52362100D02*
X109631578Y-52433528D01*
X109631578Y-52433528D02*
X109560150Y-52362100D01*
X109560150Y-52362100D02*
X109631578Y-52290671D01*
X109631578Y-52290671D02*
X109631578Y-52433528D01*
X109631578Y-51504957D02*
X109703007Y-51576385D01*
X109703007Y-51576385D02*
X109631578Y-51647814D01*
X109631578Y-51647814D02*
X109560150Y-51576385D01*
X109560150Y-51576385D02*
X109631578Y-51504957D01*
X109631578Y-51504957D02*
X109631578Y-51647814D01*
X111560150Y-52433528D02*
X111845864Y-52433528D01*
X111845864Y-52433528D02*
X111988721Y-52362100D01*
X111988721Y-52362100D02*
X112060150Y-52290671D01*
X112060150Y-52290671D02*
X112203007Y-52076385D01*
X112203007Y-52076385D02*
X112274436Y-51790671D01*
X112274436Y-51790671D02*
X112274436Y-51219242D01*
X112274436Y-51219242D02*
X112203007Y-51076385D01*
X112203007Y-51076385D02*
X112131579Y-51004957D01*
X112131579Y-51004957D02*
X111988721Y-50933528D01*
X111988721Y-50933528D02*
X111703007Y-50933528D01*
X111703007Y-50933528D02*
X111560150Y-51004957D01*
X111560150Y-51004957D02*
X111488721Y-51076385D01*
X111488721Y-51076385D02*
X111417293Y-51219242D01*
X111417293Y-51219242D02*
X111417293Y-51576385D01*
X111417293Y-51576385D02*
X111488721Y-51719242D01*
X111488721Y-51719242D02*
X111560150Y-51790671D01*
X111560150Y-51790671D02*
X111703007Y-51862100D01*
X111703007Y-51862100D02*
X111988721Y-51862100D01*
X111988721Y-51862100D02*
X112131579Y-51790671D01*
X112131579Y-51790671D02*
X112203007Y-51719242D01*
X112203007Y-51719242D02*
X112274436Y-51576385D01*
X112917292Y-51862100D02*
X114060150Y-51862100D01*
X114703007Y-51076385D02*
X114774435Y-51004957D01*
X114774435Y-51004957D02*
X114917293Y-50933528D01*
X114917293Y-50933528D02*
X115274435Y-50933528D01*
X115274435Y-50933528D02*
X115417293Y-51004957D01*
X115417293Y-51004957D02*
X115488721Y-51076385D01*
X115488721Y-51076385D02*
X115560150Y-51219242D01*
X115560150Y-51219242D02*
X115560150Y-51362100D01*
X115560150Y-51362100D02*
X115488721Y-51576385D01*
X115488721Y-51576385D02*
X114631578Y-52433528D01*
X114631578Y-52433528D02*
X115560150Y-52433528D01*
X116845864Y-51433528D02*
X116845864Y-52433528D01*
X116488721Y-50862100D02*
X116131578Y-51933528D01*
X116131578Y-51933528D02*
X117060149Y-51933528D01*
X118560149Y-50933528D02*
X119060149Y-52433528D01*
X119060149Y-52433528D02*
X119560149Y-50933528D01*
D11*
X131140476Y-67562295D02*
X131597619Y-67562295D01*
X131369047Y-68362295D02*
X131369047Y-67562295D01*
X131788095Y-67562295D02*
X132321429Y-68362295D01*
X132321429Y-67562295D02*
X131788095Y-68362295D01*
X113890476Y-66350390D02*
X113814286Y-66312295D01*
X113814286Y-66312295D02*
X113700000Y-66312295D01*
X113700000Y-66312295D02*
X113585714Y-66350390D01*
X113585714Y-66350390D02*
X113509524Y-66426580D01*
X113509524Y-66426580D02*
X113471429Y-66502771D01*
X113471429Y-66502771D02*
X113433333Y-66655152D01*
X113433333Y-66655152D02*
X113433333Y-66769438D01*
X113433333Y-66769438D02*
X113471429Y-66921819D01*
X113471429Y-66921819D02*
X113509524Y-66998009D01*
X113509524Y-66998009D02*
X113585714Y-67074200D01*
X113585714Y-67074200D02*
X113700000Y-67112295D01*
X113700000Y-67112295D02*
X113776191Y-67112295D01*
X113776191Y-67112295D02*
X113890476Y-67074200D01*
X113890476Y-67074200D02*
X113928572Y-67036104D01*
X113928572Y-67036104D02*
X113928572Y-66769438D01*
X113928572Y-66769438D02*
X113776191Y-66769438D01*
X114271429Y-67112295D02*
X114271429Y-66312295D01*
X114271429Y-66312295D02*
X114728572Y-67112295D01*
X114728572Y-67112295D02*
X114728572Y-66312295D01*
X115109524Y-67112295D02*
X115109524Y-66312295D01*
X115109524Y-66312295D02*
X115300000Y-66312295D01*
X115300000Y-66312295D02*
X115414286Y-66350390D01*
X115414286Y-66350390D02*
X115490476Y-66426580D01*
X115490476Y-66426580D02*
X115528571Y-66502771D01*
X115528571Y-66502771D02*
X115566667Y-66655152D01*
X115566667Y-66655152D02*
X115566667Y-66769438D01*
X115566667Y-66769438D02*
X115528571Y-66921819D01*
X115528571Y-66921819D02*
X115490476Y-66998009D01*
X115490476Y-66998009D02*
X115414286Y-67074200D01*
X115414286Y-67074200D02*
X115300000Y-67112295D01*
X115300000Y-67112295D02*
X115109524Y-67112295D01*
X120847619Y-66312295D02*
X120466667Y-66312295D01*
X120466667Y-66312295D02*
X120428571Y-66693247D01*
X120428571Y-66693247D02*
X120466667Y-66655152D01*
X120466667Y-66655152D02*
X120542857Y-66617057D01*
X120542857Y-66617057D02*
X120733333Y-66617057D01*
X120733333Y-66617057D02*
X120809524Y-66655152D01*
X120809524Y-66655152D02*
X120847619Y-66693247D01*
X120847619Y-66693247D02*
X120885714Y-66769438D01*
X120885714Y-66769438D02*
X120885714Y-66959914D01*
X120885714Y-66959914D02*
X120847619Y-67036104D01*
X120847619Y-67036104D02*
X120809524Y-67074200D01*
X120809524Y-67074200D02*
X120733333Y-67112295D01*
X120733333Y-67112295D02*
X120542857Y-67112295D01*
X120542857Y-67112295D02*
X120466667Y-67074200D01*
X120466667Y-67074200D02*
X120428571Y-67036104D01*
X121114286Y-66312295D02*
X121380953Y-67112295D01*
X121380953Y-67112295D02*
X121647619Y-66312295D01*
X103073810Y-71587295D02*
X103073810Y-70787295D01*
X103073810Y-71168247D02*
X103530953Y-71168247D01*
X103530953Y-71587295D02*
X103530953Y-70787295D01*
X103873809Y-71358723D02*
X104254762Y-71358723D01*
X103797619Y-71587295D02*
X104064286Y-70787295D01*
X104064286Y-70787295D02*
X104330952Y-71587295D01*
X104597619Y-71587295D02*
X104597619Y-70787295D01*
X104597619Y-70787295D02*
X105054762Y-71587295D01*
X105054762Y-71587295D02*
X105054762Y-70787295D01*
X105435714Y-71587295D02*
X105435714Y-70787295D01*
X105435714Y-70787295D02*
X105626190Y-70787295D01*
X105626190Y-70787295D02*
X105740476Y-70825390D01*
X105740476Y-70825390D02*
X105816666Y-70901580D01*
X105816666Y-70901580D02*
X105854761Y-70977771D01*
X105854761Y-70977771D02*
X105892857Y-71130152D01*
X105892857Y-71130152D02*
X105892857Y-71244438D01*
X105892857Y-71244438D02*
X105854761Y-71396819D01*
X105854761Y-71396819D02*
X105816666Y-71473009D01*
X105816666Y-71473009D02*
X105740476Y-71549200D01*
X105740476Y-71549200D02*
X105626190Y-71587295D01*
X105626190Y-71587295D02*
X105435714Y-71587295D01*
X106616666Y-71587295D02*
X106235714Y-71587295D01*
X106235714Y-71587295D02*
X106235714Y-70787295D01*
X106883333Y-71168247D02*
X107149999Y-71168247D01*
X107264285Y-71587295D02*
X106883333Y-71587295D01*
X106883333Y-71587295D02*
X106883333Y-70787295D01*
X106883333Y-70787295D02*
X107264285Y-70787295D01*
X101690476Y-99462295D02*
X101690476Y-100109914D01*
X101690476Y-100109914D02*
X101728571Y-100186104D01*
X101728571Y-100186104D02*
X101766666Y-100224200D01*
X101766666Y-100224200D02*
X101842857Y-100262295D01*
X101842857Y-100262295D02*
X101995238Y-100262295D01*
X101995238Y-100262295D02*
X102071428Y-100224200D01*
X102071428Y-100224200D02*
X102109523Y-100186104D01*
X102109523Y-100186104D02*
X102147619Y-100109914D01*
X102147619Y-100109914D02*
X102147619Y-99462295D01*
X102947618Y-100262295D02*
X102490475Y-100262295D01*
X102719047Y-100262295D02*
X102719047Y-99462295D01*
X102719047Y-99462295D02*
X102642856Y-99576580D01*
X102642856Y-99576580D02*
X102566666Y-99652771D01*
X102566666Y-99652771D02*
X102490475Y-99690866D01*
X114466667Y-98286104D02*
X114428571Y-98324200D01*
X114428571Y-98324200D02*
X114314286Y-98362295D01*
X114314286Y-98362295D02*
X114238095Y-98362295D01*
X114238095Y-98362295D02*
X114123809Y-98324200D01*
X114123809Y-98324200D02*
X114047619Y-98248009D01*
X114047619Y-98248009D02*
X114009524Y-98171819D01*
X114009524Y-98171819D02*
X113971428Y-98019438D01*
X113971428Y-98019438D02*
X113971428Y-97905152D01*
X113971428Y-97905152D02*
X114009524Y-97752771D01*
X114009524Y-97752771D02*
X114047619Y-97676580D01*
X114047619Y-97676580D02*
X114123809Y-97600390D01*
X114123809Y-97600390D02*
X114238095Y-97562295D01*
X114238095Y-97562295D02*
X114314286Y-97562295D01*
X114314286Y-97562295D02*
X114428571Y-97600390D01*
X114428571Y-97600390D02*
X114466667Y-97638485D01*
X114847619Y-98362295D02*
X115000000Y-98362295D01*
X115000000Y-98362295D02*
X115076190Y-98324200D01*
X115076190Y-98324200D02*
X115114286Y-98286104D01*
X115114286Y-98286104D02*
X115190476Y-98171819D01*
X115190476Y-98171819D02*
X115228571Y-98019438D01*
X115228571Y-98019438D02*
X115228571Y-97714676D01*
X115228571Y-97714676D02*
X115190476Y-97638485D01*
X115190476Y-97638485D02*
X115152381Y-97600390D01*
X115152381Y-97600390D02*
X115076190Y-97562295D01*
X115076190Y-97562295D02*
X114923809Y-97562295D01*
X114923809Y-97562295D02*
X114847619Y-97600390D01*
X114847619Y-97600390D02*
X114809524Y-97638485D01*
X114809524Y-97638485D02*
X114771428Y-97714676D01*
X114771428Y-97714676D02*
X114771428Y-97905152D01*
X114771428Y-97905152D02*
X114809524Y-97981342D01*
X114809524Y-97981342D02*
X114847619Y-98019438D01*
X114847619Y-98019438D02*
X114923809Y-98057533D01*
X114923809Y-98057533D02*
X115076190Y-98057533D01*
X115076190Y-98057533D02*
X115152381Y-98019438D01*
X115152381Y-98019438D02*
X115190476Y-97981342D01*
X115190476Y-97981342D02*
X115228571Y-97905152D01*
X117485714Y-93286104D02*
X117447618Y-93324200D01*
X117447618Y-93324200D02*
X117333333Y-93362295D01*
X117333333Y-93362295D02*
X117257142Y-93362295D01*
X117257142Y-93362295D02*
X117142856Y-93324200D01*
X117142856Y-93324200D02*
X117066666Y-93248009D01*
X117066666Y-93248009D02*
X117028571Y-93171819D01*
X117028571Y-93171819D02*
X116990475Y-93019438D01*
X116990475Y-93019438D02*
X116990475Y-92905152D01*
X116990475Y-92905152D02*
X117028571Y-92752771D01*
X117028571Y-92752771D02*
X117066666Y-92676580D01*
X117066666Y-92676580D02*
X117142856Y-92600390D01*
X117142856Y-92600390D02*
X117257142Y-92562295D01*
X117257142Y-92562295D02*
X117333333Y-92562295D01*
X117333333Y-92562295D02*
X117447618Y-92600390D01*
X117447618Y-92600390D02*
X117485714Y-92638485D01*
X118247618Y-93362295D02*
X117790475Y-93362295D01*
X118019047Y-93362295D02*
X118019047Y-92562295D01*
X118019047Y-92562295D02*
X117942856Y-92676580D01*
X117942856Y-92676580D02*
X117866666Y-92752771D01*
X117866666Y-92752771D02*
X117790475Y-92790866D01*
X118742857Y-92562295D02*
X118819047Y-92562295D01*
X118819047Y-92562295D02*
X118895238Y-92600390D01*
X118895238Y-92600390D02*
X118933333Y-92638485D01*
X118933333Y-92638485D02*
X118971428Y-92714676D01*
X118971428Y-92714676D02*
X119009523Y-92867057D01*
X119009523Y-92867057D02*
X119009523Y-93057533D01*
X119009523Y-93057533D02*
X118971428Y-93209914D01*
X118971428Y-93209914D02*
X118933333Y-93286104D01*
X118933333Y-93286104D02*
X118895238Y-93324200D01*
X118895238Y-93324200D02*
X118819047Y-93362295D01*
X118819047Y-93362295D02*
X118742857Y-93362295D01*
X118742857Y-93362295D02*
X118666666Y-93324200D01*
X118666666Y-93324200D02*
X118628571Y-93286104D01*
X118628571Y-93286104D02*
X118590476Y-93209914D01*
X118590476Y-93209914D02*
X118552380Y-93057533D01*
X118552380Y-93057533D02*
X118552380Y-92867057D01*
X118552380Y-92867057D02*
X118590476Y-92714676D01*
X118590476Y-92714676D02*
X118628571Y-92638485D01*
X118628571Y-92638485D02*
X118666666Y-92600390D01*
X118666666Y-92600390D02*
X118742857Y-92562295D01*
X123262295Y-111214285D02*
X122881342Y-111480952D01*
X123262295Y-111671428D02*
X122462295Y-111671428D01*
X122462295Y-111671428D02*
X122462295Y-111366666D01*
X122462295Y-111366666D02*
X122500390Y-111290476D01*
X122500390Y-111290476D02*
X122538485Y-111252381D01*
X122538485Y-111252381D02*
X122614676Y-111214285D01*
X122614676Y-111214285D02*
X122728961Y-111214285D01*
X122728961Y-111214285D02*
X122805152Y-111252381D01*
X122805152Y-111252381D02*
X122843247Y-111290476D01*
X122843247Y-111290476D02*
X122881342Y-111366666D01*
X122881342Y-111366666D02*
X122881342Y-111671428D01*
X122462295Y-110947619D02*
X122462295Y-110452381D01*
X122462295Y-110452381D02*
X122767057Y-110719047D01*
X122767057Y-110719047D02*
X122767057Y-110604762D01*
X122767057Y-110604762D02*
X122805152Y-110528571D01*
X122805152Y-110528571D02*
X122843247Y-110490476D01*
X122843247Y-110490476D02*
X122919438Y-110452381D01*
X122919438Y-110452381D02*
X123109914Y-110452381D01*
X123109914Y-110452381D02*
X123186104Y-110490476D01*
X123186104Y-110490476D02*
X123224200Y-110528571D01*
X123224200Y-110528571D02*
X123262295Y-110604762D01*
X123262295Y-110604762D02*
X123262295Y-110833333D01*
X123262295Y-110833333D02*
X123224200Y-110909524D01*
X123224200Y-110909524D02*
X123186104Y-110947619D01*
X123262295Y-109690476D02*
X123262295Y-110147619D01*
X123262295Y-109919047D02*
X122462295Y-109919047D01*
X122462295Y-109919047D02*
X122576580Y-109995238D01*
X122576580Y-109995238D02*
X122652771Y-110071428D01*
X122652771Y-110071428D02*
X122690866Y-110147619D01*
X123286104Y-58989285D02*
X123324200Y-59027381D01*
X123324200Y-59027381D02*
X123362295Y-59141666D01*
X123362295Y-59141666D02*
X123362295Y-59217857D01*
X123362295Y-59217857D02*
X123324200Y-59332143D01*
X123324200Y-59332143D02*
X123248009Y-59408333D01*
X123248009Y-59408333D02*
X123171819Y-59446428D01*
X123171819Y-59446428D02*
X123019438Y-59484524D01*
X123019438Y-59484524D02*
X122905152Y-59484524D01*
X122905152Y-59484524D02*
X122752771Y-59446428D01*
X122752771Y-59446428D02*
X122676580Y-59408333D01*
X122676580Y-59408333D02*
X122600390Y-59332143D01*
X122600390Y-59332143D02*
X122562295Y-59217857D01*
X122562295Y-59217857D02*
X122562295Y-59141666D01*
X122562295Y-59141666D02*
X122600390Y-59027381D01*
X122600390Y-59027381D02*
X122638485Y-58989285D01*
X123362295Y-58227381D02*
X123362295Y-58684524D01*
X123362295Y-58455952D02*
X122562295Y-58455952D01*
X122562295Y-58455952D02*
X122676580Y-58532143D01*
X122676580Y-58532143D02*
X122752771Y-58608333D01*
X122752771Y-58608333D02*
X122790866Y-58684524D01*
X122562295Y-57960714D02*
X122562295Y-57465476D01*
X122562295Y-57465476D02*
X122867057Y-57732142D01*
X122867057Y-57732142D02*
X122867057Y-57617857D01*
X122867057Y-57617857D02*
X122905152Y-57541666D01*
X122905152Y-57541666D02*
X122943247Y-57503571D01*
X122943247Y-57503571D02*
X123019438Y-57465476D01*
X123019438Y-57465476D02*
X123209914Y-57465476D01*
X123209914Y-57465476D02*
X123286104Y-57503571D01*
X123286104Y-57503571D02*
X123324200Y-57541666D01*
X123324200Y-57541666D02*
X123362295Y-57617857D01*
X123362295Y-57617857D02*
X123362295Y-57846428D01*
X123362295Y-57846428D02*
X123324200Y-57922619D01*
X123324200Y-57922619D02*
X123286104Y-57960714D01*
X125035714Y-109412295D02*
X124769047Y-109031342D01*
X124578571Y-109412295D02*
X124578571Y-108612295D01*
X124578571Y-108612295D02*
X124883333Y-108612295D01*
X124883333Y-108612295D02*
X124959523Y-108650390D01*
X124959523Y-108650390D02*
X124997618Y-108688485D01*
X124997618Y-108688485D02*
X125035714Y-108764676D01*
X125035714Y-108764676D02*
X125035714Y-108878961D01*
X125035714Y-108878961D02*
X124997618Y-108955152D01*
X124997618Y-108955152D02*
X124959523Y-108993247D01*
X124959523Y-108993247D02*
X124883333Y-109031342D01*
X124883333Y-109031342D02*
X124578571Y-109031342D01*
X125302380Y-108612295D02*
X125797618Y-108612295D01*
X125797618Y-108612295D02*
X125530952Y-108917057D01*
X125530952Y-108917057D02*
X125645237Y-108917057D01*
X125645237Y-108917057D02*
X125721428Y-108955152D01*
X125721428Y-108955152D02*
X125759523Y-108993247D01*
X125759523Y-108993247D02*
X125797618Y-109069438D01*
X125797618Y-109069438D02*
X125797618Y-109259914D01*
X125797618Y-109259914D02*
X125759523Y-109336104D01*
X125759523Y-109336104D02*
X125721428Y-109374200D01*
X125721428Y-109374200D02*
X125645237Y-109412295D01*
X125645237Y-109412295D02*
X125416666Y-109412295D01*
X125416666Y-109412295D02*
X125340475Y-109374200D01*
X125340475Y-109374200D02*
X125302380Y-109336104D01*
X126064285Y-108612295D02*
X126559523Y-108612295D01*
X126559523Y-108612295D02*
X126292857Y-108917057D01*
X126292857Y-108917057D02*
X126407142Y-108917057D01*
X126407142Y-108917057D02*
X126483333Y-108955152D01*
X126483333Y-108955152D02*
X126521428Y-108993247D01*
X126521428Y-108993247D02*
X126559523Y-109069438D01*
X126559523Y-109069438D02*
X126559523Y-109259914D01*
X126559523Y-109259914D02*
X126521428Y-109336104D01*
X126521428Y-109336104D02*
X126483333Y-109374200D01*
X126483333Y-109374200D02*
X126407142Y-109412295D01*
X126407142Y-109412295D02*
X126178571Y-109412295D01*
X126178571Y-109412295D02*
X126102380Y-109374200D01*
X126102380Y-109374200D02*
X126064285Y-109336104D01*
X105478571Y-115062295D02*
X105478571Y-114262295D01*
X105478571Y-114262295D02*
X105669047Y-114262295D01*
X105669047Y-114262295D02*
X105783333Y-114300390D01*
X105783333Y-114300390D02*
X105859523Y-114376580D01*
X105859523Y-114376580D02*
X105897618Y-114452771D01*
X105897618Y-114452771D02*
X105935714Y-114605152D01*
X105935714Y-114605152D02*
X105935714Y-114719438D01*
X105935714Y-114719438D02*
X105897618Y-114871819D01*
X105897618Y-114871819D02*
X105859523Y-114948009D01*
X105859523Y-114948009D02*
X105783333Y-115024200D01*
X105783333Y-115024200D02*
X105669047Y-115062295D01*
X105669047Y-115062295D02*
X105478571Y-115062295D01*
X106697618Y-115062295D02*
X106240475Y-115062295D01*
X106469047Y-115062295D02*
X106469047Y-114262295D01*
X106469047Y-114262295D02*
X106392856Y-114376580D01*
X106392856Y-114376580D02*
X106316666Y-114452771D01*
X106316666Y-114452771D02*
X106240475Y-114490866D01*
X107192857Y-114262295D02*
X107269047Y-114262295D01*
X107269047Y-114262295D02*
X107345238Y-114300390D01*
X107345238Y-114300390D02*
X107383333Y-114338485D01*
X107383333Y-114338485D02*
X107421428Y-114414676D01*
X107421428Y-114414676D02*
X107459523Y-114567057D01*
X107459523Y-114567057D02*
X107459523Y-114757533D01*
X107459523Y-114757533D02*
X107421428Y-114909914D01*
X107421428Y-114909914D02*
X107383333Y-114986104D01*
X107383333Y-114986104D02*
X107345238Y-115024200D01*
X107345238Y-115024200D02*
X107269047Y-115062295D01*
X107269047Y-115062295D02*
X107192857Y-115062295D01*
X107192857Y-115062295D02*
X107116666Y-115024200D01*
X107116666Y-115024200D02*
X107078571Y-114986104D01*
X107078571Y-114986104D02*
X107040476Y-114909914D01*
X107040476Y-114909914D02*
X107002380Y-114757533D01*
X107002380Y-114757533D02*
X107002380Y-114567057D01*
X107002380Y-114567057D02*
X107040476Y-114414676D01*
X107040476Y-114414676D02*
X107078571Y-114338485D01*
X107078571Y-114338485D02*
X107116666Y-114300390D01*
X107116666Y-114300390D02*
X107192857Y-114262295D01*
X117535714Y-90812295D02*
X117269047Y-90431342D01*
X117078571Y-90812295D02*
X117078571Y-90012295D01*
X117078571Y-90012295D02*
X117383333Y-90012295D01*
X117383333Y-90012295D02*
X117459523Y-90050390D01*
X117459523Y-90050390D02*
X117497618Y-90088485D01*
X117497618Y-90088485D02*
X117535714Y-90164676D01*
X117535714Y-90164676D02*
X117535714Y-90278961D01*
X117535714Y-90278961D02*
X117497618Y-90355152D01*
X117497618Y-90355152D02*
X117459523Y-90393247D01*
X117459523Y-90393247D02*
X117383333Y-90431342D01*
X117383333Y-90431342D02*
X117078571Y-90431342D01*
X118297618Y-90812295D02*
X117840475Y-90812295D01*
X118069047Y-90812295D02*
X118069047Y-90012295D01*
X118069047Y-90012295D02*
X117992856Y-90126580D01*
X117992856Y-90126580D02*
X117916666Y-90202771D01*
X117916666Y-90202771D02*
X117840475Y-90240866D01*
X118602380Y-90088485D02*
X118640476Y-90050390D01*
X118640476Y-90050390D02*
X118716666Y-90012295D01*
X118716666Y-90012295D02*
X118907142Y-90012295D01*
X118907142Y-90012295D02*
X118983333Y-90050390D01*
X118983333Y-90050390D02*
X119021428Y-90088485D01*
X119021428Y-90088485D02*
X119059523Y-90164676D01*
X119059523Y-90164676D02*
X119059523Y-90240866D01*
X119059523Y-90240866D02*
X119021428Y-90355152D01*
X119021428Y-90355152D02*
X118564285Y-90812295D01*
X118564285Y-90812295D02*
X119059523Y-90812295D01*
X125286104Y-58933332D02*
X125324200Y-58971428D01*
X125324200Y-58971428D02*
X125362295Y-59085713D01*
X125362295Y-59085713D02*
X125362295Y-59161904D01*
X125362295Y-59161904D02*
X125324200Y-59276190D01*
X125324200Y-59276190D02*
X125248009Y-59352380D01*
X125248009Y-59352380D02*
X125171819Y-59390475D01*
X125171819Y-59390475D02*
X125019438Y-59428571D01*
X125019438Y-59428571D02*
X124905152Y-59428571D01*
X124905152Y-59428571D02*
X124752771Y-59390475D01*
X124752771Y-59390475D02*
X124676580Y-59352380D01*
X124676580Y-59352380D02*
X124600390Y-59276190D01*
X124600390Y-59276190D02*
X124562295Y-59161904D01*
X124562295Y-59161904D02*
X124562295Y-59085713D01*
X124562295Y-59085713D02*
X124600390Y-58971428D01*
X124600390Y-58971428D02*
X124638485Y-58933332D01*
X124562295Y-58247618D02*
X124562295Y-58399999D01*
X124562295Y-58399999D02*
X124600390Y-58476190D01*
X124600390Y-58476190D02*
X124638485Y-58514285D01*
X124638485Y-58514285D02*
X124752771Y-58590475D01*
X124752771Y-58590475D02*
X124905152Y-58628571D01*
X124905152Y-58628571D02*
X125209914Y-58628571D01*
X125209914Y-58628571D02*
X125286104Y-58590475D01*
X125286104Y-58590475D02*
X125324200Y-58552380D01*
X125324200Y-58552380D02*
X125362295Y-58476190D01*
X125362295Y-58476190D02*
X125362295Y-58323809D01*
X125362295Y-58323809D02*
X125324200Y-58247618D01*
X125324200Y-58247618D02*
X125286104Y-58209523D01*
X125286104Y-58209523D02*
X125209914Y-58171428D01*
X125209914Y-58171428D02*
X125019438Y-58171428D01*
X125019438Y-58171428D02*
X124943247Y-58209523D01*
X124943247Y-58209523D02*
X124905152Y-58247618D01*
X124905152Y-58247618D02*
X124867057Y-58323809D01*
X124867057Y-58323809D02*
X124867057Y-58476190D01*
X124867057Y-58476190D02*
X124905152Y-58552380D01*
X124905152Y-58552380D02*
X124943247Y-58590475D01*
X124943247Y-58590475D02*
X125019438Y-58628571D01*
X117335714Y-68786104D02*
X117297618Y-68824200D01*
X117297618Y-68824200D02*
X117183333Y-68862295D01*
X117183333Y-68862295D02*
X117107142Y-68862295D01*
X117107142Y-68862295D02*
X116992856Y-68824200D01*
X116992856Y-68824200D02*
X116916666Y-68748009D01*
X116916666Y-68748009D02*
X116878571Y-68671819D01*
X116878571Y-68671819D02*
X116840475Y-68519438D01*
X116840475Y-68519438D02*
X116840475Y-68405152D01*
X116840475Y-68405152D02*
X116878571Y-68252771D01*
X116878571Y-68252771D02*
X116916666Y-68176580D01*
X116916666Y-68176580D02*
X116992856Y-68100390D01*
X116992856Y-68100390D02*
X117107142Y-68062295D01*
X117107142Y-68062295D02*
X117183333Y-68062295D01*
X117183333Y-68062295D02*
X117297618Y-68100390D01*
X117297618Y-68100390D02*
X117335714Y-68138485D01*
X117640475Y-68138485D02*
X117678571Y-68100390D01*
X117678571Y-68100390D02*
X117754761Y-68062295D01*
X117754761Y-68062295D02*
X117945237Y-68062295D01*
X117945237Y-68062295D02*
X118021428Y-68100390D01*
X118021428Y-68100390D02*
X118059523Y-68138485D01*
X118059523Y-68138485D02*
X118097618Y-68214676D01*
X118097618Y-68214676D02*
X118097618Y-68290866D01*
X118097618Y-68290866D02*
X118059523Y-68405152D01*
X118059523Y-68405152D02*
X117602380Y-68862295D01*
X117602380Y-68862295D02*
X118097618Y-68862295D01*
X118478571Y-68862295D02*
X118630952Y-68862295D01*
X118630952Y-68862295D02*
X118707142Y-68824200D01*
X118707142Y-68824200D02*
X118745238Y-68786104D01*
X118745238Y-68786104D02*
X118821428Y-68671819D01*
X118821428Y-68671819D02*
X118859523Y-68519438D01*
X118859523Y-68519438D02*
X118859523Y-68214676D01*
X118859523Y-68214676D02*
X118821428Y-68138485D01*
X118821428Y-68138485D02*
X118783333Y-68100390D01*
X118783333Y-68100390D02*
X118707142Y-68062295D01*
X118707142Y-68062295D02*
X118554761Y-68062295D01*
X118554761Y-68062295D02*
X118478571Y-68100390D01*
X118478571Y-68100390D02*
X118440476Y-68138485D01*
X118440476Y-68138485D02*
X118402380Y-68214676D01*
X118402380Y-68214676D02*
X118402380Y-68405152D01*
X118402380Y-68405152D02*
X118440476Y-68481342D01*
X118440476Y-68481342D02*
X118478571Y-68519438D01*
X118478571Y-68519438D02*
X118554761Y-68557533D01*
X118554761Y-68557533D02*
X118707142Y-68557533D01*
X118707142Y-68557533D02*
X118783333Y-68519438D01*
X118783333Y-68519438D02*
X118821428Y-68481342D01*
X118821428Y-68481342D02*
X118859523Y-68405152D01*
X120923809Y-98938485D02*
X120847619Y-98900390D01*
X120847619Y-98900390D02*
X120771428Y-98824200D01*
X120771428Y-98824200D02*
X120657142Y-98709914D01*
X120657142Y-98709914D02*
X120580952Y-98671819D01*
X120580952Y-98671819D02*
X120504761Y-98671819D01*
X120542857Y-98862295D02*
X120466666Y-98824200D01*
X120466666Y-98824200D02*
X120390476Y-98748009D01*
X120390476Y-98748009D02*
X120352380Y-98595628D01*
X120352380Y-98595628D02*
X120352380Y-98328961D01*
X120352380Y-98328961D02*
X120390476Y-98176580D01*
X120390476Y-98176580D02*
X120466666Y-98100390D01*
X120466666Y-98100390D02*
X120542857Y-98062295D01*
X120542857Y-98062295D02*
X120695238Y-98062295D01*
X120695238Y-98062295D02*
X120771428Y-98100390D01*
X120771428Y-98100390D02*
X120847619Y-98176580D01*
X120847619Y-98176580D02*
X120885714Y-98328961D01*
X120885714Y-98328961D02*
X120885714Y-98595628D01*
X120885714Y-98595628D02*
X120847619Y-98748009D01*
X120847619Y-98748009D02*
X120771428Y-98824200D01*
X120771428Y-98824200D02*
X120695238Y-98862295D01*
X120695238Y-98862295D02*
X120542857Y-98862295D01*
X121190475Y-98138485D02*
X121228571Y-98100390D01*
X121228571Y-98100390D02*
X121304761Y-98062295D01*
X121304761Y-98062295D02*
X121495237Y-98062295D01*
X121495237Y-98062295D02*
X121571428Y-98100390D01*
X121571428Y-98100390D02*
X121609523Y-98138485D01*
X121609523Y-98138485D02*
X121647618Y-98214676D01*
X121647618Y-98214676D02*
X121647618Y-98290866D01*
X121647618Y-98290866D02*
X121609523Y-98405152D01*
X121609523Y-98405152D02*
X121152380Y-98862295D01*
X121152380Y-98862295D02*
X121647618Y-98862295D01*
X117535714Y-98136104D02*
X117497618Y-98174200D01*
X117497618Y-98174200D02*
X117383333Y-98212295D01*
X117383333Y-98212295D02*
X117307142Y-98212295D01*
X117307142Y-98212295D02*
X117192856Y-98174200D01*
X117192856Y-98174200D02*
X117116666Y-98098009D01*
X117116666Y-98098009D02*
X117078571Y-98021819D01*
X117078571Y-98021819D02*
X117040475Y-97869438D01*
X117040475Y-97869438D02*
X117040475Y-97755152D01*
X117040475Y-97755152D02*
X117078571Y-97602771D01*
X117078571Y-97602771D02*
X117116666Y-97526580D01*
X117116666Y-97526580D02*
X117192856Y-97450390D01*
X117192856Y-97450390D02*
X117307142Y-97412295D01*
X117307142Y-97412295D02*
X117383333Y-97412295D01*
X117383333Y-97412295D02*
X117497618Y-97450390D01*
X117497618Y-97450390D02*
X117535714Y-97488485D01*
X117840475Y-97488485D02*
X117878571Y-97450390D01*
X117878571Y-97450390D02*
X117954761Y-97412295D01*
X117954761Y-97412295D02*
X118145237Y-97412295D01*
X118145237Y-97412295D02*
X118221428Y-97450390D01*
X118221428Y-97450390D02*
X118259523Y-97488485D01*
X118259523Y-97488485D02*
X118297618Y-97564676D01*
X118297618Y-97564676D02*
X118297618Y-97640866D01*
X118297618Y-97640866D02*
X118259523Y-97755152D01*
X118259523Y-97755152D02*
X117802380Y-98212295D01*
X117802380Y-98212295D02*
X118297618Y-98212295D01*
X118792857Y-97412295D02*
X118869047Y-97412295D01*
X118869047Y-97412295D02*
X118945238Y-97450390D01*
X118945238Y-97450390D02*
X118983333Y-97488485D01*
X118983333Y-97488485D02*
X119021428Y-97564676D01*
X119021428Y-97564676D02*
X119059523Y-97717057D01*
X119059523Y-97717057D02*
X119059523Y-97907533D01*
X119059523Y-97907533D02*
X119021428Y-98059914D01*
X119021428Y-98059914D02*
X118983333Y-98136104D01*
X118983333Y-98136104D02*
X118945238Y-98174200D01*
X118945238Y-98174200D02*
X118869047Y-98212295D01*
X118869047Y-98212295D02*
X118792857Y-98212295D01*
X118792857Y-98212295D02*
X118716666Y-98174200D01*
X118716666Y-98174200D02*
X118678571Y-98136104D01*
X118678571Y-98136104D02*
X118640476Y-98059914D01*
X118640476Y-98059914D02*
X118602380Y-97907533D01*
X118602380Y-97907533D02*
X118602380Y-97717057D01*
X118602380Y-97717057D02*
X118640476Y-97564676D01*
X118640476Y-97564676D02*
X118678571Y-97488485D01*
X118678571Y-97488485D02*
X118716666Y-97450390D01*
X118716666Y-97450390D02*
X118792857Y-97412295D01*
X120885714Y-97462295D02*
X120619047Y-97081342D01*
X120428571Y-97462295D02*
X120428571Y-96662295D01*
X120428571Y-96662295D02*
X120733333Y-96662295D01*
X120733333Y-96662295D02*
X120809523Y-96700390D01*
X120809523Y-96700390D02*
X120847618Y-96738485D01*
X120847618Y-96738485D02*
X120885714Y-96814676D01*
X120885714Y-96814676D02*
X120885714Y-96928961D01*
X120885714Y-96928961D02*
X120847618Y-97005152D01*
X120847618Y-97005152D02*
X120809523Y-97043247D01*
X120809523Y-97043247D02*
X120733333Y-97081342D01*
X120733333Y-97081342D02*
X120428571Y-97081342D01*
X121647618Y-97462295D02*
X121190475Y-97462295D01*
X121419047Y-97462295D02*
X121419047Y-96662295D01*
X121419047Y-96662295D02*
X121342856Y-96776580D01*
X121342856Y-96776580D02*
X121266666Y-96852771D01*
X121266666Y-96852771D02*
X121190475Y-96890866D01*
X122333333Y-96662295D02*
X122180952Y-96662295D01*
X122180952Y-96662295D02*
X122104761Y-96700390D01*
X122104761Y-96700390D02*
X122066666Y-96738485D01*
X122066666Y-96738485D02*
X121990476Y-96852771D01*
X121990476Y-96852771D02*
X121952380Y-97005152D01*
X121952380Y-97005152D02*
X121952380Y-97309914D01*
X121952380Y-97309914D02*
X121990476Y-97386104D01*
X121990476Y-97386104D02*
X122028571Y-97424200D01*
X122028571Y-97424200D02*
X122104761Y-97462295D01*
X122104761Y-97462295D02*
X122257142Y-97462295D01*
X122257142Y-97462295D02*
X122333333Y-97424200D01*
X122333333Y-97424200D02*
X122371428Y-97386104D01*
X122371428Y-97386104D02*
X122409523Y-97309914D01*
X122409523Y-97309914D02*
X122409523Y-97119438D01*
X122409523Y-97119438D02*
X122371428Y-97043247D01*
X122371428Y-97043247D02*
X122333333Y-97005152D01*
X122333333Y-97005152D02*
X122257142Y-96967057D01*
X122257142Y-96967057D02*
X122104761Y-96967057D01*
X122104761Y-96967057D02*
X122028571Y-97005152D01*
X122028571Y-97005152D02*
X121990476Y-97043247D01*
X121990476Y-97043247D02*
X121952380Y-97119438D01*
X117485714Y-95862295D02*
X117219047Y-95481342D01*
X117028571Y-95862295D02*
X117028571Y-95062295D01*
X117028571Y-95062295D02*
X117333333Y-95062295D01*
X117333333Y-95062295D02*
X117409523Y-95100390D01*
X117409523Y-95100390D02*
X117447618Y-95138485D01*
X117447618Y-95138485D02*
X117485714Y-95214676D01*
X117485714Y-95214676D02*
X117485714Y-95328961D01*
X117485714Y-95328961D02*
X117447618Y-95405152D01*
X117447618Y-95405152D02*
X117409523Y-95443247D01*
X117409523Y-95443247D02*
X117333333Y-95481342D01*
X117333333Y-95481342D02*
X117028571Y-95481342D01*
X118247618Y-95862295D02*
X117790475Y-95862295D01*
X118019047Y-95862295D02*
X118019047Y-95062295D01*
X118019047Y-95062295D02*
X117942856Y-95176580D01*
X117942856Y-95176580D02*
X117866666Y-95252771D01*
X117866666Y-95252771D02*
X117790475Y-95290866D01*
X119009523Y-95862295D02*
X118552380Y-95862295D01*
X118780952Y-95862295D02*
X118780952Y-95062295D01*
X118780952Y-95062295D02*
X118704761Y-95176580D01*
X118704761Y-95176580D02*
X118628571Y-95252771D01*
X118628571Y-95252771D02*
X118552380Y-95290866D01*
X124485714Y-101562295D02*
X124104762Y-101562295D01*
X124104762Y-101562295D02*
X124104762Y-100762295D01*
X124714285Y-101524200D02*
X124828571Y-101562295D01*
X124828571Y-101562295D02*
X125019047Y-101562295D01*
X125019047Y-101562295D02*
X125095238Y-101524200D01*
X125095238Y-101524200D02*
X125133333Y-101486104D01*
X125133333Y-101486104D02*
X125171428Y-101409914D01*
X125171428Y-101409914D02*
X125171428Y-101333723D01*
X125171428Y-101333723D02*
X125133333Y-101257533D01*
X125133333Y-101257533D02*
X125095238Y-101219438D01*
X125095238Y-101219438D02*
X125019047Y-101181342D01*
X125019047Y-101181342D02*
X124866666Y-101143247D01*
X124866666Y-101143247D02*
X124790476Y-101105152D01*
X124790476Y-101105152D02*
X124752381Y-101067057D01*
X124752381Y-101067057D02*
X124714285Y-100990866D01*
X124714285Y-100990866D02*
X124714285Y-100914676D01*
X124714285Y-100914676D02*
X124752381Y-100838485D01*
X124752381Y-100838485D02*
X124790476Y-100800390D01*
X124790476Y-100800390D02*
X124866666Y-100762295D01*
X124866666Y-100762295D02*
X125057143Y-100762295D01*
X125057143Y-100762295D02*
X125171428Y-100800390D01*
X125933333Y-101562295D02*
X125476190Y-101562295D01*
X125704762Y-101562295D02*
X125704762Y-100762295D01*
X125704762Y-100762295D02*
X125628571Y-100876580D01*
X125628571Y-100876580D02*
X125552381Y-100952771D01*
X125552381Y-100952771D02*
X125476190Y-100990866D01*
X120985714Y-100362295D02*
X120719047Y-99981342D01*
X120528571Y-100362295D02*
X120528571Y-99562295D01*
X120528571Y-99562295D02*
X120833333Y-99562295D01*
X120833333Y-99562295D02*
X120909523Y-99600390D01*
X120909523Y-99600390D02*
X120947618Y-99638485D01*
X120947618Y-99638485D02*
X120985714Y-99714676D01*
X120985714Y-99714676D02*
X120985714Y-99828961D01*
X120985714Y-99828961D02*
X120947618Y-99905152D01*
X120947618Y-99905152D02*
X120909523Y-99943247D01*
X120909523Y-99943247D02*
X120833333Y-99981342D01*
X120833333Y-99981342D02*
X120528571Y-99981342D01*
X121747618Y-100362295D02*
X121290475Y-100362295D01*
X121519047Y-100362295D02*
X121519047Y-99562295D01*
X121519047Y-99562295D02*
X121442856Y-99676580D01*
X121442856Y-99676580D02*
X121366666Y-99752771D01*
X121366666Y-99752771D02*
X121290475Y-99790866D01*
X122014285Y-99562295D02*
X122547619Y-99562295D01*
X122547619Y-99562295D02*
X122204761Y-100362295D01*
X108336104Y-64539285D02*
X108374200Y-64577381D01*
X108374200Y-64577381D02*
X108412295Y-64691666D01*
X108412295Y-64691666D02*
X108412295Y-64767857D01*
X108412295Y-64767857D02*
X108374200Y-64882143D01*
X108374200Y-64882143D02*
X108298009Y-64958333D01*
X108298009Y-64958333D02*
X108221819Y-64996428D01*
X108221819Y-64996428D02*
X108069438Y-65034524D01*
X108069438Y-65034524D02*
X107955152Y-65034524D01*
X107955152Y-65034524D02*
X107802771Y-64996428D01*
X107802771Y-64996428D02*
X107726580Y-64958333D01*
X107726580Y-64958333D02*
X107650390Y-64882143D01*
X107650390Y-64882143D02*
X107612295Y-64767857D01*
X107612295Y-64767857D02*
X107612295Y-64691666D01*
X107612295Y-64691666D02*
X107650390Y-64577381D01*
X107650390Y-64577381D02*
X107688485Y-64539285D01*
X108412295Y-63777381D02*
X108412295Y-64234524D01*
X108412295Y-64005952D02*
X107612295Y-64005952D01*
X107612295Y-64005952D02*
X107726580Y-64082143D01*
X107726580Y-64082143D02*
X107802771Y-64158333D01*
X107802771Y-64158333D02*
X107840866Y-64234524D01*
X108412295Y-63396428D02*
X108412295Y-63244047D01*
X108412295Y-63244047D02*
X108374200Y-63167857D01*
X108374200Y-63167857D02*
X108336104Y-63129761D01*
X108336104Y-63129761D02*
X108221819Y-63053571D01*
X108221819Y-63053571D02*
X108069438Y-63015476D01*
X108069438Y-63015476D02*
X107764676Y-63015476D01*
X107764676Y-63015476D02*
X107688485Y-63053571D01*
X107688485Y-63053571D02*
X107650390Y-63091666D01*
X107650390Y-63091666D02*
X107612295Y-63167857D01*
X107612295Y-63167857D02*
X107612295Y-63320238D01*
X107612295Y-63320238D02*
X107650390Y-63396428D01*
X107650390Y-63396428D02*
X107688485Y-63434523D01*
X107688485Y-63434523D02*
X107764676Y-63472619D01*
X107764676Y-63472619D02*
X107955152Y-63472619D01*
X107955152Y-63472619D02*
X108031342Y-63434523D01*
X108031342Y-63434523D02*
X108069438Y-63396428D01*
X108069438Y-63396428D02*
X108107533Y-63320238D01*
X108107533Y-63320238D02*
X108107533Y-63167857D01*
X108107533Y-63167857D02*
X108069438Y-63091666D01*
X108069438Y-63091666D02*
X108031342Y-63053571D01*
X108031342Y-63053571D02*
X107955152Y-63015476D01*
X106409524Y-81062295D02*
X106409524Y-80262295D01*
X106409524Y-80262295D02*
X106600000Y-80262295D01*
X106600000Y-80262295D02*
X106714286Y-80300390D01*
X106714286Y-80300390D02*
X106790476Y-80376580D01*
X106790476Y-80376580D02*
X106828571Y-80452771D01*
X106828571Y-80452771D02*
X106866667Y-80605152D01*
X106866667Y-80605152D02*
X106866667Y-80719438D01*
X106866667Y-80719438D02*
X106828571Y-80871819D01*
X106828571Y-80871819D02*
X106790476Y-80948009D01*
X106790476Y-80948009D02*
X106714286Y-81024200D01*
X106714286Y-81024200D02*
X106600000Y-81062295D01*
X106600000Y-81062295D02*
X106409524Y-81062295D01*
X107133333Y-80262295D02*
X107666667Y-80262295D01*
X107666667Y-80262295D02*
X107323809Y-81062295D01*
X129628571Y-87562295D02*
X129628571Y-86762295D01*
X129628571Y-86762295D02*
X129819047Y-86762295D01*
X129819047Y-86762295D02*
X129933333Y-86800390D01*
X129933333Y-86800390D02*
X130009523Y-86876580D01*
X130009523Y-86876580D02*
X130047618Y-86952771D01*
X130047618Y-86952771D02*
X130085714Y-87105152D01*
X130085714Y-87105152D02*
X130085714Y-87219438D01*
X130085714Y-87219438D02*
X130047618Y-87371819D01*
X130047618Y-87371819D02*
X130009523Y-87448009D01*
X130009523Y-87448009D02*
X129933333Y-87524200D01*
X129933333Y-87524200D02*
X129819047Y-87562295D01*
X129819047Y-87562295D02*
X129628571Y-87562295D01*
X130847618Y-87562295D02*
X130390475Y-87562295D01*
X130619047Y-87562295D02*
X130619047Y-86762295D01*
X130619047Y-86762295D02*
X130542856Y-86876580D01*
X130542856Y-86876580D02*
X130466666Y-86952771D01*
X130466666Y-86952771D02*
X130390475Y-86990866D01*
X131609523Y-87562295D02*
X131152380Y-87562295D01*
X131380952Y-87562295D02*
X131380952Y-86762295D01*
X131380952Y-86762295D02*
X131304761Y-86876580D01*
X131304761Y-86876580D02*
X131228571Y-86952771D01*
X131228571Y-86952771D02*
X131152380Y-86990866D01*
X125035714Y-111612295D02*
X124769047Y-111231342D01*
X124578571Y-111612295D02*
X124578571Y-110812295D01*
X124578571Y-110812295D02*
X124883333Y-110812295D01*
X124883333Y-110812295D02*
X124959523Y-110850390D01*
X124959523Y-110850390D02*
X124997618Y-110888485D01*
X124997618Y-110888485D02*
X125035714Y-110964676D01*
X125035714Y-110964676D02*
X125035714Y-111078961D01*
X125035714Y-111078961D02*
X124997618Y-111155152D01*
X124997618Y-111155152D02*
X124959523Y-111193247D01*
X124959523Y-111193247D02*
X124883333Y-111231342D01*
X124883333Y-111231342D02*
X124578571Y-111231342D01*
X125302380Y-110812295D02*
X125797618Y-110812295D01*
X125797618Y-110812295D02*
X125530952Y-111117057D01*
X125530952Y-111117057D02*
X125645237Y-111117057D01*
X125645237Y-111117057D02*
X125721428Y-111155152D01*
X125721428Y-111155152D02*
X125759523Y-111193247D01*
X125759523Y-111193247D02*
X125797618Y-111269438D01*
X125797618Y-111269438D02*
X125797618Y-111459914D01*
X125797618Y-111459914D02*
X125759523Y-111536104D01*
X125759523Y-111536104D02*
X125721428Y-111574200D01*
X125721428Y-111574200D02*
X125645237Y-111612295D01*
X125645237Y-111612295D02*
X125416666Y-111612295D01*
X125416666Y-111612295D02*
X125340475Y-111574200D01*
X125340475Y-111574200D02*
X125302380Y-111536104D01*
X126483333Y-111078961D02*
X126483333Y-111612295D01*
X126292857Y-110774200D02*
X126102380Y-111345628D01*
X126102380Y-111345628D02*
X126597619Y-111345628D01*
X113828571Y-59012295D02*
X113828571Y-58212295D01*
X113828571Y-58212295D02*
X114133333Y-58212295D01*
X114133333Y-58212295D02*
X114209523Y-58250390D01*
X114209523Y-58250390D02*
X114247618Y-58288485D01*
X114247618Y-58288485D02*
X114285714Y-58364676D01*
X114285714Y-58364676D02*
X114285714Y-58478961D01*
X114285714Y-58478961D02*
X114247618Y-58555152D01*
X114247618Y-58555152D02*
X114209523Y-58593247D01*
X114209523Y-58593247D02*
X114133333Y-58631342D01*
X114133333Y-58631342D02*
X113828571Y-58631342D01*
X114590475Y-58974200D02*
X114704761Y-59012295D01*
X114704761Y-59012295D02*
X114895237Y-59012295D01*
X114895237Y-59012295D02*
X114971428Y-58974200D01*
X114971428Y-58974200D02*
X115009523Y-58936104D01*
X115009523Y-58936104D02*
X115047618Y-58859914D01*
X115047618Y-58859914D02*
X115047618Y-58783723D01*
X115047618Y-58783723D02*
X115009523Y-58707533D01*
X115009523Y-58707533D02*
X114971428Y-58669438D01*
X114971428Y-58669438D02*
X114895237Y-58631342D01*
X114895237Y-58631342D02*
X114742856Y-58593247D01*
X114742856Y-58593247D02*
X114666666Y-58555152D01*
X114666666Y-58555152D02*
X114628571Y-58517057D01*
X114628571Y-58517057D02*
X114590475Y-58440866D01*
X114590475Y-58440866D02*
X114590475Y-58364676D01*
X114590475Y-58364676D02*
X114628571Y-58288485D01*
X114628571Y-58288485D02*
X114666666Y-58250390D01*
X114666666Y-58250390D02*
X114742856Y-58212295D01*
X114742856Y-58212295D02*
X114933333Y-58212295D01*
X114933333Y-58212295D02*
X115047618Y-58250390D01*
X115809523Y-59012295D02*
X115352380Y-59012295D01*
X115580952Y-59012295D02*
X115580952Y-58212295D01*
X115580952Y-58212295D02*
X115504761Y-58326580D01*
X115504761Y-58326580D02*
X115428571Y-58402771D01*
X115428571Y-58402771D02*
X115352380Y-58440866D01*
X109836104Y-64539285D02*
X109874200Y-64577381D01*
X109874200Y-64577381D02*
X109912295Y-64691666D01*
X109912295Y-64691666D02*
X109912295Y-64767857D01*
X109912295Y-64767857D02*
X109874200Y-64882143D01*
X109874200Y-64882143D02*
X109798009Y-64958333D01*
X109798009Y-64958333D02*
X109721819Y-64996428D01*
X109721819Y-64996428D02*
X109569438Y-65034524D01*
X109569438Y-65034524D02*
X109455152Y-65034524D01*
X109455152Y-65034524D02*
X109302771Y-64996428D01*
X109302771Y-64996428D02*
X109226580Y-64958333D01*
X109226580Y-64958333D02*
X109150390Y-64882143D01*
X109150390Y-64882143D02*
X109112295Y-64767857D01*
X109112295Y-64767857D02*
X109112295Y-64691666D01*
X109112295Y-64691666D02*
X109150390Y-64577381D01*
X109150390Y-64577381D02*
X109188485Y-64539285D01*
X109188485Y-64234524D02*
X109150390Y-64196428D01*
X109150390Y-64196428D02*
X109112295Y-64120238D01*
X109112295Y-64120238D02*
X109112295Y-63929762D01*
X109112295Y-63929762D02*
X109150390Y-63853571D01*
X109150390Y-63853571D02*
X109188485Y-63815476D01*
X109188485Y-63815476D02*
X109264676Y-63777381D01*
X109264676Y-63777381D02*
X109340866Y-63777381D01*
X109340866Y-63777381D02*
X109455152Y-63815476D01*
X109455152Y-63815476D02*
X109912295Y-64272619D01*
X109912295Y-64272619D02*
X109912295Y-63777381D01*
X109188485Y-63472619D02*
X109150390Y-63434523D01*
X109150390Y-63434523D02*
X109112295Y-63358333D01*
X109112295Y-63358333D02*
X109112295Y-63167857D01*
X109112295Y-63167857D02*
X109150390Y-63091666D01*
X109150390Y-63091666D02*
X109188485Y-63053571D01*
X109188485Y-63053571D02*
X109264676Y-63015476D01*
X109264676Y-63015476D02*
X109340866Y-63015476D01*
X109340866Y-63015476D02*
X109455152Y-63053571D01*
X109455152Y-63053571D02*
X109912295Y-63510714D01*
X109912295Y-63510714D02*
X109912295Y-63015476D01*
X104709524Y-91512295D02*
X104709524Y-90712295D01*
X104709524Y-90712295D02*
X104900000Y-90712295D01*
X104900000Y-90712295D02*
X105014286Y-90750390D01*
X105014286Y-90750390D02*
X105090476Y-90826580D01*
X105090476Y-90826580D02*
X105128571Y-90902771D01*
X105128571Y-90902771D02*
X105166667Y-91055152D01*
X105166667Y-91055152D02*
X105166667Y-91169438D01*
X105166667Y-91169438D02*
X105128571Y-91321819D01*
X105128571Y-91321819D02*
X105090476Y-91398009D01*
X105090476Y-91398009D02*
X105014286Y-91474200D01*
X105014286Y-91474200D02*
X104900000Y-91512295D01*
X104900000Y-91512295D02*
X104709524Y-91512295D01*
X105547619Y-91512295D02*
X105700000Y-91512295D01*
X105700000Y-91512295D02*
X105776190Y-91474200D01*
X105776190Y-91474200D02*
X105814286Y-91436104D01*
X105814286Y-91436104D02*
X105890476Y-91321819D01*
X105890476Y-91321819D02*
X105928571Y-91169438D01*
X105928571Y-91169438D02*
X105928571Y-90864676D01*
X105928571Y-90864676D02*
X105890476Y-90788485D01*
X105890476Y-90788485D02*
X105852381Y-90750390D01*
X105852381Y-90750390D02*
X105776190Y-90712295D01*
X105776190Y-90712295D02*
X105623809Y-90712295D01*
X105623809Y-90712295D02*
X105547619Y-90750390D01*
X105547619Y-90750390D02*
X105509524Y-90788485D01*
X105509524Y-90788485D02*
X105471428Y-90864676D01*
X105471428Y-90864676D02*
X105471428Y-91055152D01*
X105471428Y-91055152D02*
X105509524Y-91131342D01*
X105509524Y-91131342D02*
X105547619Y-91169438D01*
X105547619Y-91169438D02*
X105623809Y-91207533D01*
X105623809Y-91207533D02*
X105776190Y-91207533D01*
X105776190Y-91207533D02*
X105852381Y-91169438D01*
X105852381Y-91169438D02*
X105890476Y-91131342D01*
X105890476Y-91131342D02*
X105928571Y-91055152D01*
X117485714Y-94562295D02*
X117219047Y-94181342D01*
X117028571Y-94562295D02*
X117028571Y-93762295D01*
X117028571Y-93762295D02*
X117333333Y-93762295D01*
X117333333Y-93762295D02*
X117409523Y-93800390D01*
X117409523Y-93800390D02*
X117447618Y-93838485D01*
X117447618Y-93838485D02*
X117485714Y-93914676D01*
X117485714Y-93914676D02*
X117485714Y-94028961D01*
X117485714Y-94028961D02*
X117447618Y-94105152D01*
X117447618Y-94105152D02*
X117409523Y-94143247D01*
X117409523Y-94143247D02*
X117333333Y-94181342D01*
X117333333Y-94181342D02*
X117028571Y-94181342D01*
X118247618Y-94562295D02*
X117790475Y-94562295D01*
X118019047Y-94562295D02*
X118019047Y-93762295D01*
X118019047Y-93762295D02*
X117942856Y-93876580D01*
X117942856Y-93876580D02*
X117866666Y-93952771D01*
X117866666Y-93952771D02*
X117790475Y-93990866D01*
X118514285Y-93762295D02*
X119009523Y-93762295D01*
X119009523Y-93762295D02*
X118742857Y-94067057D01*
X118742857Y-94067057D02*
X118857142Y-94067057D01*
X118857142Y-94067057D02*
X118933333Y-94105152D01*
X118933333Y-94105152D02*
X118971428Y-94143247D01*
X118971428Y-94143247D02*
X119009523Y-94219438D01*
X119009523Y-94219438D02*
X119009523Y-94409914D01*
X119009523Y-94409914D02*
X118971428Y-94486104D01*
X118971428Y-94486104D02*
X118933333Y-94524200D01*
X118933333Y-94524200D02*
X118857142Y-94562295D01*
X118857142Y-94562295D02*
X118628571Y-94562295D01*
X118628571Y-94562295D02*
X118552380Y-94524200D01*
X118552380Y-94524200D02*
X118514285Y-94486104D01*
X117485714Y-96936104D02*
X117447618Y-96974200D01*
X117447618Y-96974200D02*
X117333333Y-97012295D01*
X117333333Y-97012295D02*
X117257142Y-97012295D01*
X117257142Y-97012295D02*
X117142856Y-96974200D01*
X117142856Y-96974200D02*
X117066666Y-96898009D01*
X117066666Y-96898009D02*
X117028571Y-96821819D01*
X117028571Y-96821819D02*
X116990475Y-96669438D01*
X116990475Y-96669438D02*
X116990475Y-96555152D01*
X116990475Y-96555152D02*
X117028571Y-96402771D01*
X117028571Y-96402771D02*
X117066666Y-96326580D01*
X117066666Y-96326580D02*
X117142856Y-96250390D01*
X117142856Y-96250390D02*
X117257142Y-96212295D01*
X117257142Y-96212295D02*
X117333333Y-96212295D01*
X117333333Y-96212295D02*
X117447618Y-96250390D01*
X117447618Y-96250390D02*
X117485714Y-96288485D01*
X117752380Y-96212295D02*
X118247618Y-96212295D01*
X118247618Y-96212295D02*
X117980952Y-96517057D01*
X117980952Y-96517057D02*
X118095237Y-96517057D01*
X118095237Y-96517057D02*
X118171428Y-96555152D01*
X118171428Y-96555152D02*
X118209523Y-96593247D01*
X118209523Y-96593247D02*
X118247618Y-96669438D01*
X118247618Y-96669438D02*
X118247618Y-96859914D01*
X118247618Y-96859914D02*
X118209523Y-96936104D01*
X118209523Y-96936104D02*
X118171428Y-96974200D01*
X118171428Y-96974200D02*
X118095237Y-97012295D01*
X118095237Y-97012295D02*
X117866666Y-97012295D01*
X117866666Y-97012295D02*
X117790475Y-96974200D01*
X117790475Y-96974200D02*
X117752380Y-96936104D01*
X118742857Y-96212295D02*
X118819047Y-96212295D01*
X118819047Y-96212295D02*
X118895238Y-96250390D01*
X118895238Y-96250390D02*
X118933333Y-96288485D01*
X118933333Y-96288485D02*
X118971428Y-96364676D01*
X118971428Y-96364676D02*
X119009523Y-96517057D01*
X119009523Y-96517057D02*
X119009523Y-96707533D01*
X119009523Y-96707533D02*
X118971428Y-96859914D01*
X118971428Y-96859914D02*
X118933333Y-96936104D01*
X118933333Y-96936104D02*
X118895238Y-96974200D01*
X118895238Y-96974200D02*
X118819047Y-97012295D01*
X118819047Y-97012295D02*
X118742857Y-97012295D01*
X118742857Y-97012295D02*
X118666666Y-96974200D01*
X118666666Y-96974200D02*
X118628571Y-96936104D01*
X118628571Y-96936104D02*
X118590476Y-96859914D01*
X118590476Y-96859914D02*
X118552380Y-96707533D01*
X118552380Y-96707533D02*
X118552380Y-96517057D01*
X118552380Y-96517057D02*
X118590476Y-96364676D01*
X118590476Y-96364676D02*
X118628571Y-96288485D01*
X118628571Y-96288485D02*
X118666666Y-96250390D01*
X118666666Y-96250390D02*
X118742857Y-96212295D01*
X125035714Y-110512295D02*
X124769047Y-110131342D01*
X124578571Y-110512295D02*
X124578571Y-109712295D01*
X124578571Y-109712295D02*
X124883333Y-109712295D01*
X124883333Y-109712295D02*
X124959523Y-109750390D01*
X124959523Y-109750390D02*
X124997618Y-109788485D01*
X124997618Y-109788485D02*
X125035714Y-109864676D01*
X125035714Y-109864676D02*
X125035714Y-109978961D01*
X125035714Y-109978961D02*
X124997618Y-110055152D01*
X124997618Y-110055152D02*
X124959523Y-110093247D01*
X124959523Y-110093247D02*
X124883333Y-110131342D01*
X124883333Y-110131342D02*
X124578571Y-110131342D01*
X125302380Y-109712295D02*
X125797618Y-109712295D01*
X125797618Y-109712295D02*
X125530952Y-110017057D01*
X125530952Y-110017057D02*
X125645237Y-110017057D01*
X125645237Y-110017057D02*
X125721428Y-110055152D01*
X125721428Y-110055152D02*
X125759523Y-110093247D01*
X125759523Y-110093247D02*
X125797618Y-110169438D01*
X125797618Y-110169438D02*
X125797618Y-110359914D01*
X125797618Y-110359914D02*
X125759523Y-110436104D01*
X125759523Y-110436104D02*
X125721428Y-110474200D01*
X125721428Y-110474200D02*
X125645237Y-110512295D01*
X125645237Y-110512295D02*
X125416666Y-110512295D01*
X125416666Y-110512295D02*
X125340475Y-110474200D01*
X125340475Y-110474200D02*
X125302380Y-110436104D01*
X126102380Y-109788485D02*
X126140476Y-109750390D01*
X126140476Y-109750390D02*
X126216666Y-109712295D01*
X126216666Y-109712295D02*
X126407142Y-109712295D01*
X126407142Y-109712295D02*
X126483333Y-109750390D01*
X126483333Y-109750390D02*
X126521428Y-109788485D01*
X126521428Y-109788485D02*
X126559523Y-109864676D01*
X126559523Y-109864676D02*
X126559523Y-109940866D01*
X126559523Y-109940866D02*
X126521428Y-110055152D01*
X126521428Y-110055152D02*
X126064285Y-110512295D01*
X126064285Y-110512295D02*
X126559523Y-110512295D01*
X117516667Y-92036104D02*
X117478571Y-92074200D01*
X117478571Y-92074200D02*
X117364286Y-92112295D01*
X117364286Y-92112295D02*
X117288095Y-92112295D01*
X117288095Y-92112295D02*
X117173809Y-92074200D01*
X117173809Y-92074200D02*
X117097619Y-91998009D01*
X117097619Y-91998009D02*
X117059524Y-91921819D01*
X117059524Y-91921819D02*
X117021428Y-91769438D01*
X117021428Y-91769438D02*
X117021428Y-91655152D01*
X117021428Y-91655152D02*
X117059524Y-91502771D01*
X117059524Y-91502771D02*
X117097619Y-91426580D01*
X117097619Y-91426580D02*
X117173809Y-91350390D01*
X117173809Y-91350390D02*
X117288095Y-91312295D01*
X117288095Y-91312295D02*
X117364286Y-91312295D01*
X117364286Y-91312295D02*
X117478571Y-91350390D01*
X117478571Y-91350390D02*
X117516667Y-91388485D01*
X117973809Y-91655152D02*
X117897619Y-91617057D01*
X117897619Y-91617057D02*
X117859524Y-91578961D01*
X117859524Y-91578961D02*
X117821428Y-91502771D01*
X117821428Y-91502771D02*
X117821428Y-91464676D01*
X117821428Y-91464676D02*
X117859524Y-91388485D01*
X117859524Y-91388485D02*
X117897619Y-91350390D01*
X117897619Y-91350390D02*
X117973809Y-91312295D01*
X117973809Y-91312295D02*
X118126190Y-91312295D01*
X118126190Y-91312295D02*
X118202381Y-91350390D01*
X118202381Y-91350390D02*
X118240476Y-91388485D01*
X118240476Y-91388485D02*
X118278571Y-91464676D01*
X118278571Y-91464676D02*
X118278571Y-91502771D01*
X118278571Y-91502771D02*
X118240476Y-91578961D01*
X118240476Y-91578961D02*
X118202381Y-91617057D01*
X118202381Y-91617057D02*
X118126190Y-91655152D01*
X118126190Y-91655152D02*
X117973809Y-91655152D01*
X117973809Y-91655152D02*
X117897619Y-91693247D01*
X117897619Y-91693247D02*
X117859524Y-91731342D01*
X117859524Y-91731342D02*
X117821428Y-91807533D01*
X117821428Y-91807533D02*
X117821428Y-91959914D01*
X117821428Y-91959914D02*
X117859524Y-92036104D01*
X117859524Y-92036104D02*
X117897619Y-92074200D01*
X117897619Y-92074200D02*
X117973809Y-92112295D01*
X117973809Y-92112295D02*
X118126190Y-92112295D01*
X118126190Y-92112295D02*
X118202381Y-92074200D01*
X118202381Y-92074200D02*
X118240476Y-92036104D01*
X118240476Y-92036104D02*
X118278571Y-91959914D01*
X118278571Y-91959914D02*
X118278571Y-91807533D01*
X118278571Y-91807533D02*
X118240476Y-91731342D01*
X118240476Y-91731342D02*
X118202381Y-91693247D01*
X118202381Y-91693247D02*
X118126190Y-91655152D01*
X130086104Y-116364285D02*
X130124200Y-116402381D01*
X130124200Y-116402381D02*
X130162295Y-116516666D01*
X130162295Y-116516666D02*
X130162295Y-116592857D01*
X130162295Y-116592857D02*
X130124200Y-116707143D01*
X130124200Y-116707143D02*
X130048009Y-116783333D01*
X130048009Y-116783333D02*
X129971819Y-116821428D01*
X129971819Y-116821428D02*
X129819438Y-116859524D01*
X129819438Y-116859524D02*
X129705152Y-116859524D01*
X129705152Y-116859524D02*
X129552771Y-116821428D01*
X129552771Y-116821428D02*
X129476580Y-116783333D01*
X129476580Y-116783333D02*
X129400390Y-116707143D01*
X129400390Y-116707143D02*
X129362295Y-116592857D01*
X129362295Y-116592857D02*
X129362295Y-116516666D01*
X129362295Y-116516666D02*
X129400390Y-116402381D01*
X129400390Y-116402381D02*
X129438485Y-116364285D01*
X129362295Y-116097619D02*
X129362295Y-115602381D01*
X129362295Y-115602381D02*
X129667057Y-115869047D01*
X129667057Y-115869047D02*
X129667057Y-115754762D01*
X129667057Y-115754762D02*
X129705152Y-115678571D01*
X129705152Y-115678571D02*
X129743247Y-115640476D01*
X129743247Y-115640476D02*
X129819438Y-115602381D01*
X129819438Y-115602381D02*
X130009914Y-115602381D01*
X130009914Y-115602381D02*
X130086104Y-115640476D01*
X130086104Y-115640476D02*
X130124200Y-115678571D01*
X130124200Y-115678571D02*
X130162295Y-115754762D01*
X130162295Y-115754762D02*
X130162295Y-115983333D01*
X130162295Y-115983333D02*
X130124200Y-116059524D01*
X130124200Y-116059524D02*
X130086104Y-116097619D01*
X130162295Y-114840476D02*
X130162295Y-115297619D01*
X130162295Y-115069047D02*
X129362295Y-115069047D01*
X129362295Y-115069047D02*
X129476580Y-115145238D01*
X129476580Y-115145238D02*
X129552771Y-115221428D01*
X129552771Y-115221428D02*
X129590866Y-115297619D01*
X124535714Y-91512295D02*
X124269047Y-91131342D01*
X124078571Y-91512295D02*
X124078571Y-90712295D01*
X124078571Y-90712295D02*
X124383333Y-90712295D01*
X124383333Y-90712295D02*
X124459523Y-90750390D01*
X124459523Y-90750390D02*
X124497618Y-90788485D01*
X124497618Y-90788485D02*
X124535714Y-90864676D01*
X124535714Y-90864676D02*
X124535714Y-90978961D01*
X124535714Y-90978961D02*
X124497618Y-91055152D01*
X124497618Y-91055152D02*
X124459523Y-91093247D01*
X124459523Y-91093247D02*
X124383333Y-91131342D01*
X124383333Y-91131342D02*
X124078571Y-91131342D01*
X124802380Y-90712295D02*
X125297618Y-90712295D01*
X125297618Y-90712295D02*
X125030952Y-91017057D01*
X125030952Y-91017057D02*
X125145237Y-91017057D01*
X125145237Y-91017057D02*
X125221428Y-91055152D01*
X125221428Y-91055152D02*
X125259523Y-91093247D01*
X125259523Y-91093247D02*
X125297618Y-91169438D01*
X125297618Y-91169438D02*
X125297618Y-91359914D01*
X125297618Y-91359914D02*
X125259523Y-91436104D01*
X125259523Y-91436104D02*
X125221428Y-91474200D01*
X125221428Y-91474200D02*
X125145237Y-91512295D01*
X125145237Y-91512295D02*
X124916666Y-91512295D01*
X124916666Y-91512295D02*
X124840475Y-91474200D01*
X124840475Y-91474200D02*
X124802380Y-91436104D01*
X125792857Y-90712295D02*
X125869047Y-90712295D01*
X125869047Y-90712295D02*
X125945238Y-90750390D01*
X125945238Y-90750390D02*
X125983333Y-90788485D01*
X125983333Y-90788485D02*
X126021428Y-90864676D01*
X126021428Y-90864676D02*
X126059523Y-91017057D01*
X126059523Y-91017057D02*
X126059523Y-91207533D01*
X126059523Y-91207533D02*
X126021428Y-91359914D01*
X126021428Y-91359914D02*
X125983333Y-91436104D01*
X125983333Y-91436104D02*
X125945238Y-91474200D01*
X125945238Y-91474200D02*
X125869047Y-91512295D01*
X125869047Y-91512295D02*
X125792857Y-91512295D01*
X125792857Y-91512295D02*
X125716666Y-91474200D01*
X125716666Y-91474200D02*
X125678571Y-91436104D01*
X125678571Y-91436104D02*
X125640476Y-91359914D01*
X125640476Y-91359914D02*
X125602380Y-91207533D01*
X125602380Y-91207533D02*
X125602380Y-91017057D01*
X125602380Y-91017057D02*
X125640476Y-90864676D01*
X125640476Y-90864676D02*
X125678571Y-90788485D01*
X125678571Y-90788485D02*
X125716666Y-90750390D01*
X125716666Y-90750390D02*
X125792857Y-90712295D01*
X117335714Y-70986104D02*
X117297618Y-71024200D01*
X117297618Y-71024200D02*
X117183333Y-71062295D01*
X117183333Y-71062295D02*
X117107142Y-71062295D01*
X117107142Y-71062295D02*
X116992856Y-71024200D01*
X116992856Y-71024200D02*
X116916666Y-70948009D01*
X116916666Y-70948009D02*
X116878571Y-70871819D01*
X116878571Y-70871819D02*
X116840475Y-70719438D01*
X116840475Y-70719438D02*
X116840475Y-70605152D01*
X116840475Y-70605152D02*
X116878571Y-70452771D01*
X116878571Y-70452771D02*
X116916666Y-70376580D01*
X116916666Y-70376580D02*
X116992856Y-70300390D01*
X116992856Y-70300390D02*
X117107142Y-70262295D01*
X117107142Y-70262295D02*
X117183333Y-70262295D01*
X117183333Y-70262295D02*
X117297618Y-70300390D01*
X117297618Y-70300390D02*
X117335714Y-70338485D01*
X117640475Y-70338485D02*
X117678571Y-70300390D01*
X117678571Y-70300390D02*
X117754761Y-70262295D01*
X117754761Y-70262295D02*
X117945237Y-70262295D01*
X117945237Y-70262295D02*
X118021428Y-70300390D01*
X118021428Y-70300390D02*
X118059523Y-70338485D01*
X118059523Y-70338485D02*
X118097618Y-70414676D01*
X118097618Y-70414676D02*
X118097618Y-70490866D01*
X118097618Y-70490866D02*
X118059523Y-70605152D01*
X118059523Y-70605152D02*
X117602380Y-71062295D01*
X117602380Y-71062295D02*
X118097618Y-71062295D01*
X118554761Y-70605152D02*
X118478571Y-70567057D01*
X118478571Y-70567057D02*
X118440476Y-70528961D01*
X118440476Y-70528961D02*
X118402380Y-70452771D01*
X118402380Y-70452771D02*
X118402380Y-70414676D01*
X118402380Y-70414676D02*
X118440476Y-70338485D01*
X118440476Y-70338485D02*
X118478571Y-70300390D01*
X118478571Y-70300390D02*
X118554761Y-70262295D01*
X118554761Y-70262295D02*
X118707142Y-70262295D01*
X118707142Y-70262295D02*
X118783333Y-70300390D01*
X118783333Y-70300390D02*
X118821428Y-70338485D01*
X118821428Y-70338485D02*
X118859523Y-70414676D01*
X118859523Y-70414676D02*
X118859523Y-70452771D01*
X118859523Y-70452771D02*
X118821428Y-70528961D01*
X118821428Y-70528961D02*
X118783333Y-70567057D01*
X118783333Y-70567057D02*
X118707142Y-70605152D01*
X118707142Y-70605152D02*
X118554761Y-70605152D01*
X118554761Y-70605152D02*
X118478571Y-70643247D01*
X118478571Y-70643247D02*
X118440476Y-70681342D01*
X118440476Y-70681342D02*
X118402380Y-70757533D01*
X118402380Y-70757533D02*
X118402380Y-70909914D01*
X118402380Y-70909914D02*
X118440476Y-70986104D01*
X118440476Y-70986104D02*
X118478571Y-71024200D01*
X118478571Y-71024200D02*
X118554761Y-71062295D01*
X118554761Y-71062295D02*
X118707142Y-71062295D01*
X118707142Y-71062295D02*
X118783333Y-71024200D01*
X118783333Y-71024200D02*
X118821428Y-70986104D01*
X118821428Y-70986104D02*
X118859523Y-70909914D01*
X118859523Y-70909914D02*
X118859523Y-70757533D01*
X118859523Y-70757533D02*
X118821428Y-70681342D01*
X118821428Y-70681342D02*
X118783333Y-70643247D01*
X118783333Y-70643247D02*
X118707142Y-70605152D01*
X132419048Y-85962295D02*
X132419048Y-85162295D01*
X133257143Y-85886104D02*
X133219047Y-85924200D01*
X133219047Y-85924200D02*
X133104762Y-85962295D01*
X133104762Y-85962295D02*
X133028571Y-85962295D01*
X133028571Y-85962295D02*
X132914285Y-85924200D01*
X132914285Y-85924200D02*
X132838095Y-85848009D01*
X132838095Y-85848009D02*
X132800000Y-85771819D01*
X132800000Y-85771819D02*
X132761904Y-85619438D01*
X132761904Y-85619438D02*
X132761904Y-85505152D01*
X132761904Y-85505152D02*
X132800000Y-85352771D01*
X132800000Y-85352771D02*
X132838095Y-85276580D01*
X132838095Y-85276580D02*
X132914285Y-85200390D01*
X132914285Y-85200390D02*
X133028571Y-85162295D01*
X133028571Y-85162295D02*
X133104762Y-85162295D01*
X133104762Y-85162295D02*
X133219047Y-85200390D01*
X133219047Y-85200390D02*
X133257143Y-85238485D01*
X133714285Y-85505152D02*
X133638095Y-85467057D01*
X133638095Y-85467057D02*
X133600000Y-85428961D01*
X133600000Y-85428961D02*
X133561904Y-85352771D01*
X133561904Y-85352771D02*
X133561904Y-85314676D01*
X133561904Y-85314676D02*
X133600000Y-85238485D01*
X133600000Y-85238485D02*
X133638095Y-85200390D01*
X133638095Y-85200390D02*
X133714285Y-85162295D01*
X133714285Y-85162295D02*
X133866666Y-85162295D01*
X133866666Y-85162295D02*
X133942857Y-85200390D01*
X133942857Y-85200390D02*
X133980952Y-85238485D01*
X133980952Y-85238485D02*
X134019047Y-85314676D01*
X134019047Y-85314676D02*
X134019047Y-85352771D01*
X134019047Y-85352771D02*
X133980952Y-85428961D01*
X133980952Y-85428961D02*
X133942857Y-85467057D01*
X133942857Y-85467057D02*
X133866666Y-85505152D01*
X133866666Y-85505152D02*
X133714285Y-85505152D01*
X133714285Y-85505152D02*
X133638095Y-85543247D01*
X133638095Y-85543247D02*
X133600000Y-85581342D01*
X133600000Y-85581342D02*
X133561904Y-85657533D01*
X133561904Y-85657533D02*
X133561904Y-85809914D01*
X133561904Y-85809914D02*
X133600000Y-85886104D01*
X133600000Y-85886104D02*
X133638095Y-85924200D01*
X133638095Y-85924200D02*
X133714285Y-85962295D01*
X133714285Y-85962295D02*
X133866666Y-85962295D01*
X133866666Y-85962295D02*
X133942857Y-85924200D01*
X133942857Y-85924200D02*
X133980952Y-85886104D01*
X133980952Y-85886104D02*
X134019047Y-85809914D01*
X134019047Y-85809914D02*
X134019047Y-85657533D01*
X134019047Y-85657533D02*
X133980952Y-85581342D01*
X133980952Y-85581342D02*
X133942857Y-85543247D01*
X133942857Y-85543247D02*
X133866666Y-85505152D01*
X124535714Y-89512295D02*
X124269047Y-89131342D01*
X124078571Y-89512295D02*
X124078571Y-88712295D01*
X124078571Y-88712295D02*
X124383333Y-88712295D01*
X124383333Y-88712295D02*
X124459523Y-88750390D01*
X124459523Y-88750390D02*
X124497618Y-88788485D01*
X124497618Y-88788485D02*
X124535714Y-88864676D01*
X124535714Y-88864676D02*
X124535714Y-88978961D01*
X124535714Y-88978961D02*
X124497618Y-89055152D01*
X124497618Y-89055152D02*
X124459523Y-89093247D01*
X124459523Y-89093247D02*
X124383333Y-89131342D01*
X124383333Y-89131342D02*
X124078571Y-89131342D01*
X124840475Y-88788485D02*
X124878571Y-88750390D01*
X124878571Y-88750390D02*
X124954761Y-88712295D01*
X124954761Y-88712295D02*
X125145237Y-88712295D01*
X125145237Y-88712295D02*
X125221428Y-88750390D01*
X125221428Y-88750390D02*
X125259523Y-88788485D01*
X125259523Y-88788485D02*
X125297618Y-88864676D01*
X125297618Y-88864676D02*
X125297618Y-88940866D01*
X125297618Y-88940866D02*
X125259523Y-89055152D01*
X125259523Y-89055152D02*
X124802380Y-89512295D01*
X124802380Y-89512295D02*
X125297618Y-89512295D01*
X125564285Y-88712295D02*
X126097619Y-88712295D01*
X126097619Y-88712295D02*
X125754761Y-89512295D01*
X112069048Y-114412295D02*
X112069048Y-113612295D01*
X112907143Y-114336104D02*
X112869047Y-114374200D01*
X112869047Y-114374200D02*
X112754762Y-114412295D01*
X112754762Y-114412295D02*
X112678571Y-114412295D01*
X112678571Y-114412295D02*
X112564285Y-114374200D01*
X112564285Y-114374200D02*
X112488095Y-114298009D01*
X112488095Y-114298009D02*
X112450000Y-114221819D01*
X112450000Y-114221819D02*
X112411904Y-114069438D01*
X112411904Y-114069438D02*
X112411904Y-113955152D01*
X112411904Y-113955152D02*
X112450000Y-113802771D01*
X112450000Y-113802771D02*
X112488095Y-113726580D01*
X112488095Y-113726580D02*
X112564285Y-113650390D01*
X112564285Y-113650390D02*
X112678571Y-113612295D01*
X112678571Y-113612295D02*
X112754762Y-113612295D01*
X112754762Y-113612295D02*
X112869047Y-113650390D01*
X112869047Y-113650390D02*
X112907143Y-113688485D01*
X113173809Y-113612295D02*
X113707143Y-113612295D01*
X113707143Y-113612295D02*
X113364285Y-114412295D01*
D13*
%TO.C,U1*%
X101525000Y-112400000D02*
X101525000Y-100600000D01*
X105025000Y-112400000D02*
X101525000Y-112400000D01*
X110025000Y-112400000D02*
X113525000Y-112400000D01*
X113525000Y-112400000D02*
X113525000Y-100600000D01*
D12*
X98925000Y-109100000D02*
X98925000Y-109100000D01*
X98925000Y-108900000D02*
X98925000Y-108900000D01*
D13*
X101525000Y-100600000D02*
X105025000Y-100600000D01*
X113525000Y-100600000D02*
X110025000Y-100600000D01*
D12*
X98925000Y-108900000D02*
G75*
G03*
X98925000Y-109100000I0J-100000D01*
G01*
X98925000Y-109100000D02*
G75*
G03*
X98925000Y-108900000I0J100000D01*
G01*
D14*
%TO.C,C9*%
X114761252Y-100235000D02*
X114238748Y-100235000D01*
X114761252Y-98765000D02*
X114238748Y-98765000D01*
%TO.C,C10*%
X117738748Y-102765000D02*
X118261252Y-102765000D01*
X117738748Y-104235000D02*
X118261252Y-104235000D01*
%TO.C,R31*%
X122165000Y-113827064D02*
X122165000Y-113372936D01*
X123635000Y-113827064D02*
X123635000Y-113372936D01*
%TO.C,C13*%
X122265000Y-61511252D02*
X122265000Y-60988748D01*
X123735000Y-61511252D02*
X123735000Y-60988748D01*
%TO.C,R33*%
X125827064Y-113635000D02*
X125372936Y-113635000D01*
X125827064Y-112165000D02*
X125372936Y-112165000D01*
D12*
%TO.C,D10*%
X111025000Y-115850000D02*
X109975000Y-115850000D01*
X109625000Y-115700000D02*
X109275000Y-115700000D01*
X109625000Y-113700000D02*
X109625000Y-115700000D01*
X109275000Y-115700000D02*
X109275000Y-113700000D01*
X109275000Y-113700000D02*
X109625000Y-113700000D01*
D14*
%TO.C,R12*%
X118227064Y-100235000D02*
X117772936Y-100235000D01*
X118227064Y-98765000D02*
X117772936Y-98765000D01*
%TO.C,C6*%
X124265000Y-61511252D02*
X124265000Y-60988748D01*
X125735000Y-61511252D02*
X125735000Y-60988748D01*
%TO.C,C29*%
X114961252Y-69235000D02*
X114438748Y-69235000D01*
X114961252Y-67765000D02*
X114438748Y-67765000D01*
D12*
%TO.C,Q2*%
X120175000Y-103000000D02*
X121225000Y-103000000D01*
X121575000Y-103050000D02*
X122025000Y-103050000D01*
X121575000Y-105950000D02*
X121575000Y-103050000D01*
X122025000Y-103050000D02*
X122025000Y-105950000D01*
X122025000Y-105950000D02*
X121575000Y-105950000D01*
D14*
%TO.C,C20*%
X116888748Y-110665000D02*
X117411252Y-110665000D01*
X116888748Y-112135000D02*
X117411252Y-112135000D01*
%TO.C,R16*%
X121727064Y-102235000D02*
X121272936Y-102235000D01*
X121727064Y-100765000D02*
X121272936Y-100765000D01*
%TO.C,R11*%
X117772936Y-106615000D02*
X118227064Y-106615000D01*
X117772936Y-108085000D02*
X118227064Y-108085000D01*
D12*
%TO.C,LS1*%
X128850000Y-101100000D02*
X128850000Y-101100000D01*
X128650000Y-101100000D02*
X128650000Y-101100000D01*
D13*
X133550000Y-102200000D02*
X133550000Y-111800000D01*
X130750000Y-102200000D02*
X133550000Y-102200000D01*
X126750000Y-102200000D02*
X123950000Y-102200000D01*
X123950000Y-102200000D02*
X123950000Y-111800000D01*
X130750000Y-111800000D02*
X133550000Y-111800000D01*
X123950000Y-111800000D02*
X126750000Y-111800000D01*
D12*
X128650000Y-101100000D02*
G75*
G03*
X128850000Y-101100000I100000J0D01*
G01*
X128850000Y-101100000D02*
G75*
G03*
X128650000Y-101100000I-100000J0D01*
G01*
D14*
%TO.C,R17*%
X121272936Y-106765000D02*
X121727064Y-106765000D01*
X121272936Y-108235000D02*
X121727064Y-108235000D01*
%TO.C,C19*%
X111985000Y-63738748D02*
X111985000Y-64261252D01*
X110515000Y-63738748D02*
X110515000Y-64261252D01*
D12*
%TO.C,D7*%
X103250000Y-83400000D02*
X103250000Y-78800000D01*
X105750000Y-82600000D02*
X105750000Y-78800000D01*
D14*
%TO.C,TP3*%
X120450000Y-53750000D02*
G75*
G03*
X120450000Y-53750000I-700000J0D01*
G01*
D12*
%TO.C,D11*%
X130000000Y-88025000D02*
X133650000Y-88025000D01*
X130950000Y-89575000D02*
X133650000Y-89575000D01*
D14*
%TO.C,R34*%
X125827064Y-117335000D02*
X125372936Y-117335000D01*
X125827064Y-115865000D02*
X125372936Y-115865000D01*
D12*
%TO.C,PS1*%
X114875000Y-65725000D02*
X114875000Y-64075000D01*
X114750000Y-63500000D02*
X114750000Y-60000000D01*
X121250000Y-63500000D02*
X114750000Y-63500000D01*
X114750000Y-60000000D02*
X121250000Y-60000000D01*
X121250000Y-60000000D02*
X121250000Y-63500000D01*
D14*
%TO.C,C22*%
X113985000Y-63738748D02*
X113985000Y-64261252D01*
X112515000Y-63738748D02*
X112515000Y-64261252D01*
D12*
%TO.C,D9*%
X107110000Y-97800000D02*
X107110000Y-92400000D01*
X103490000Y-92400000D02*
X103490000Y-98375000D01*
D14*
%TO.C,R13*%
X118227064Y-106235000D02*
X117772936Y-106235000D01*
X118227064Y-104765000D02*
X117772936Y-104765000D01*
%TO.C,C30*%
X117738748Y-108615000D02*
X118261252Y-108615000D01*
X117738748Y-110085000D02*
X118261252Y-110085000D01*
%TO.C,R32*%
X125372936Y-114015000D02*
X125827064Y-114015000D01*
X125372936Y-115485000D02*
X125827064Y-115485000D01*
%TO.C,C8*%
X117738748Y-100765000D02*
X118261252Y-100765000D01*
X117738748Y-102235000D02*
X118261252Y-102235000D01*
%TO.C,C31*%
X127615000Y-116111252D02*
X127615000Y-115588748D01*
X129085000Y-116111252D02*
X129085000Y-115588748D01*
%TO.C,R30*%
X127672936Y-90465000D02*
X128127064Y-90465000D01*
X127672936Y-91935000D02*
X128127064Y-91935000D01*
%TO.C,C28*%
X114961252Y-71435000D02*
X114438748Y-71435000D01*
X114961252Y-69965000D02*
X114438748Y-69965000D01*
D13*
%TO.C,IC8*%
X131600000Y-86300000D02*
X131600000Y-86300000D01*
X131600000Y-86400000D02*
X131600000Y-86400000D01*
X131600000Y-86400000D02*
G75*
G03*
X131600000Y-86300000I0J50000D01*
G01*
X131600000Y-86300000D02*
G75*
G03*
X131600000Y-86400000I0J-50000D01*
G01*
D14*
%TO.C,R27*%
X127672936Y-88465000D02*
X128127064Y-88465000D01*
X127672936Y-89935000D02*
X128127064Y-89935000D01*
D15*
%TO.C,IC7*%
X114225000Y-113000000D02*
G75*
G03*
X114225000Y-113000000I-125000J0D01*
G01*
%TD*%
M02*
