M48
; DRILL file {KiCad 7.0.8} date Wed Oct 25 09:11:48 2023
; FORMAT={-:-/ absolute / inch / decimal}
; #@! TF.CreationDate,2023-10-25T09:11:48+02:00
; #@! TF.GenerationSoftware,Kicad,Pcbnew,7.0.8
; #@! TF.FileFunction,Plated,1,2,PTH
FMAT,2
INCH
; #@! TA.AperFunction,Plated,PTH,ViaDrill
T1C0.0098
; #@! TA.AperFunction,Plated,PTH,ViaDrill
T2C0.0118
; #@! TA.AperFunction,Plated,PTH,ComponentDrill
T3C0.0197
; #@! TA.AperFunction,Plated,PTH,ComponentDrill
T4C0.0236
; #@! TA.AperFunction,Plated,PTH,ComponentDrill
T5C0.0300
; #@! TA.AperFunction,Plated,PTH,ComponentDrill
T6C0.0394
; #@! TA.AperFunction,Plated,PTH,ComponentDrill
T7C0.0472
; #@! TA.AperFunction,Plated,PTH,ComponentDrill
T8C0.0551
; #@! TA.AperFunction,Plated,PTH,ComponentDrill
T9C0.1181
%
G90
G05
T1
X3.8543Y-2.6181
X3.8543Y-2.7411
X3.8543Y-2.8642
X3.8543Y-2.9872
X3.8543Y-3.1102
X3.8543Y-3.2333
X3.8543Y-3.3563
X4.0453Y-3.376
X4.0453Y-3.4055
X4.0453Y-3.435
X4.061Y-2.5
X4.065Y-3.937
X4.065Y-3.9665
X4.065Y-3.9961
X4.0709Y-4.3878
X4.0709Y-4.4173
X4.0709Y-4.4469
X4.0748Y-3.376
X4.0748Y-3.4055
X4.0748Y-3.435
X4.0945Y-3.937
X4.0945Y-3.9665
X4.0945Y-3.9961
X4.1004Y-4.3878
X4.1004Y-4.4173
X4.1004Y-4.4469
X4.1043Y-3.376
X4.1043Y-3.4055
X4.1043Y-3.435
X4.124Y-3.937
X4.124Y-3.9665
X4.124Y-3.9961
X4.1299Y-4.3878
X4.1299Y-4.4173
X4.1299Y-4.4469
X4.1339Y-3.435
X4.1831Y-2.3031
X4.2028Y-3.059
X4.2224Y-3.3858
X4.2224Y-3.4154
X4.2224Y-3.4449
X4.2323Y-3.2382
X4.252Y-3.059
X4.252Y-3.3858
X4.252Y-3.4154
X4.252Y-3.4449
X4.2815Y-3.3858
X4.2815Y-3.4154
X4.2815Y-3.4449
X4.311Y-3.3858
X4.311Y-3.4154
X4.311Y-3.4449
X4.3209Y-2.4705
X4.3228Y-4.3878
X4.3228Y-4.4173
X4.3248Y-3.937
X4.3248Y-3.9659
X4.3248Y-3.9954
X4.3248Y-2.8396
X4.3268Y-2.9518
X4.3347Y-2.6969
X4.3524Y-4.3878
X4.3524Y-4.4173
X4.3543Y-3.937
X4.3543Y-3.9659
X4.3543Y-3.9954
X4.3681Y-2.7352
X4.3701Y-2.3559
X4.3839Y-3.937
X4.3839Y-3.9659
X4.3839Y-3.9954
X4.3996Y-3.0906
X4.4016Y-2.9724
X4.4094Y-2.815
X4.4291Y-2.6083
X4.4293Y-2.7169
X4.439Y-2.8786
X4.439Y-3.1102
X4.439Y-3.1594
X4.4734Y-4.5119
X4.4861Y-4.6061
X4.4921Y-4.3607
X4.4961Y-4.6339
X4.5039Y-2.8858
X4.5079Y-3.2677
X4.5118Y-2.6063
X4.5158Y-2.7283
X4.5414Y-2.8871
X4.545Y-4.0471
X4.5551Y-3.2047
X4.5571Y-2.5984
X4.5719Y-3.0219
X4.5741Y-4.0335
X4.6142Y-3.1732
X4.622Y-2.6732
X4.626Y-3.4547
X4.6457Y-3.4547
X4.6476Y-2.8563
X4.6654Y-3.4547
X4.6752Y-2.9528
X4.6764Y-2.6279
X4.685Y-3.4547
X4.6897Y-4.3539
X4.6939Y-2.5492
X4.7004Y-4.5924
X4.7047Y-3.4547
X4.7087Y-2.685
X4.7126Y-4.3915
X4.7146Y-2.9528
X4.7214Y-4.3189
X4.7224Y-3.9142
X4.7224Y-3.941
X4.724Y-2.7213
X4.7244Y-3.4547
X4.7267Y-2.7973
X4.7322Y-2.8564
X4.7343Y-3.1988
X4.7343Y-3.248
X4.7343Y-3.3071
X4.7441Y-3.4547
X4.752Y-3.9142
X4.752Y-3.9409
X4.7638Y-3.4547
X4.7717Y-4.1732
X4.7845Y-3.1215
X4.7873Y-2.4814
X4.8027Y-2.5792
X4.8031Y-2.4055
X4.8346Y-2.4055
X4.8661Y-2.4055
X4.8681Y-2.9783
X4.886Y-2.7047
X4.8976Y-2.4055
X4.9016Y-2.8043
X4.9075Y-3.1181
X4.9311Y-3.3858
X4.9449Y-2.6929
X4.9488Y-2.7992
X4.9567Y-2.5394
X4.9724Y-2.9764
X4.9882Y-2.5394
X4.9902Y-2.6772
X4.9921Y-2.7087
X5.0Y-2.7402
X5.0013Y-2.8034
X5.0197Y-2.5266
X5.02Y-4.4482
X5.0285Y-3.2831
X5.0348Y-3.4206
X5.0394Y-3.2047
X5.0394Y-3.3465
X5.062Y-3.2277
X5.065Y-2.8563
X5.072Y-2.9004
X5.0808Y-3.6385
X5.0817Y-3.9528
X5.083Y-2.5915
X5.0866Y-2.4016
X5.0896Y-3.9134
X5.1142Y-3.034
X5.1181Y-2.9055
X5.122Y-2.6024
X5.128Y-3.5433
X5.1403Y-3.034
X5.1447Y-3.1181
X5.1456Y-3.2697
X5.1496Y-2.9291
X5.1555Y-3.3483
X5.1644Y-3.1444
X5.1673Y-2.782
X5.1761Y-2.7391
X5.1912Y-2.5266
X5.2049Y-2.8355
X5.2156Y-3.2359
X5.2156Y-3.2359
X5.2175Y-3.4919
X5.2352Y-2.7402
X5.2508Y-2.5208
X5.252Y-3.3661
X5.2874Y-3.5236
X5.3307Y-3.2598
T2
X4.5068Y-4.434
X4.8169Y-4.2815
X4.8405Y-4.3091
X4.9331Y-3.6575
X4.9804Y-4.126
X5.0037Y-4.1471
X5.0354Y-3.9488
X5.077Y-3.7242
X5.1082Y-3.7067
X5.1574Y-3.6574
X5.1588Y-3.4287
T3
X4.7146Y-2.1161
X4.8031Y-2.1161
X4.8917Y-2.1161
X4.9803Y-2.1161
T5
X4.2366Y-2.2173
X4.3366Y-2.2173
X4.4366Y-2.2173
X4.5366Y-2.2173
X4.6366Y-2.2173
X4.7366Y-2.2173
X4.8366Y-2.2173
X4.9366Y-2.2173
T6
X5.2835Y-2.6732
X5.2835Y-2.7732
X5.2835Y-2.8732
X5.2835Y-2.9732
X5.2835Y-3.0732
X5.2835Y-3.1732
T7
X3.9478Y-4.0945
X3.9478Y-4.2913
X3.9921Y-2.6524
X3.9921Y-2.8024
X3.9921Y-2.9524
X3.9921Y-3.1024
X3.9921Y-3.2524
X3.9921Y-3.4024
X3.9921Y-3.5524
X4.5187Y-4.0945
X4.5187Y-4.1929
X4.5187Y-4.2913
T9
X3.9567Y-2.2173
X3.9567Y-3.7724
X5.2165Y-2.2173
X5.2165Y-3.7724
T4
G00X4.4165Y-4.4358
M15
G01X4.4165Y-4.3925
M16
G05
G00X4.4165Y-4.5945
M15
G01X4.4165Y-4.563
M16
G05
G00X4.7567Y-4.4358
M15
G01X4.7567Y-4.3925
M16
G05
G00X4.7567Y-4.5945
M15
G01X4.7567Y-4.563
M16
G05
G00X5.2293Y-3.311
M15
G01X5.251Y-3.311
M16
G05
G00X5.2293Y-3.5925
M15
G01X5.251Y-3.5925
M16
G05
T8
G00X4.2096Y-3.9685
M15
G01X4.2372Y-3.9685
M16
G05
G00X4.2096Y-4.4173
M15
G01X4.2372Y-4.4173
M16
G05
T0
M30
